<svg xmlns="http://www.w3.org/2000/svg" fill="none" viewBox="0 0 48 48" stroke-width="3"><path stroke="#535bf2" stroke-linecap="round" stroke-linejoin="round" d="M29.368 3.08035C30.2652 3.35935 33.145 4.50204 37.3046 8.55862C41.2253 12.3823 42.4915 15.0971 42.8635 16.129C42.9472 18.3704 42.9998 20.9801 42.9998 24.0001C42.9998 32.0645 42.6249 37.2041 42.283 40.2144C42.033 42.4159 40.3803 44.0624 38.1796 44.3191C35.3646 44.6476 30.7668 45.0001 23.9999 45.0001C17.233 45.0001 12.6352 44.6475 9.82016 44.3191C7.61949 44.0624 5.96679 42.4159 5.71677 40.2144C5.37489 37.2041 5 32.0645 5 24.0001C5 15.9356 5.37489 10.796 5.71677 7.78567C5.96679 5.58423 7.6195 3.93771 9.82016 3.68097C12.6352 3.35255 17.233 3 23.9999 3C25.9699 3 27.7562 3.02988 29.368 3.08035Z"></path><path stroke="#000000" stroke-linecap="round" stroke-linejoin="round" d="M42.8758 16.6064C40.6208 16.9407 36.5237 16.6702 33.494 16.3858C31.2476 16.1749 29.4808 14.421 29.2607 12.1754C28.9701 9.21032 28.7 5.24025 29.0511 3.07178"></path><path stroke="#000000" stroke-linecap="round" stroke-linejoin="round" d="M21.2081 18.8357C22.3038 17.9185 23.0006 16.5406 23.0006 15C23.0006 12.2386 20.762 10 18.0006 10C15.2392 10 13.0006 12.2386 13.0006 15C13.0006 16.5403 13.6971 17.9179 14.7923 18.8351C12.9433 19.8622 11.5744 21.7495 11.1432 24.005C10.9734 24.8935 11.6142 25.6654 12.5135 25.7628C13.606 25.8811 15.3607 26 17.9997 26C20.6387 26 22.3933 25.8811 23.4858 25.7628C24.3851 25.6654 25.026 24.8935 24.8561 24.005C24.425 21.75 23.0566 19.8629 21.2081 18.8357Z"></path><path stroke="#000000" stroke-linecap="round" stroke-linejoin="round" d="M12 32H36"></path><path stroke="#000000" stroke-linecap="round" stroke-linejoin="round" d="M12 38H36"></path></svg>