<svg xmlns="http://www.w3.org/2000/svg" viewBox="0 0 200 200" height="300" width="300"><defs></defs><path d="M154.3 68.177H56.745v-3.854A4.256 4.256 0 0 1 61 60.068h92a11.572 11.572 0 0 0-.236 2.323v.094H72v3.242h81.176l.078-.022a12.214 12.214 0 0 0 1.046 2.472Z" fill="#646cff52"></path><path d="M109.819 131.366a3.152 3.152 0 1 1-3.151 3.151 3.153 3.153 0 0 1 3.151-3.151Z" fill="#f5f0f0"></path><path d="M166.676 83.989v36.3a19.79 19.79 0 0 0-2.178 1.1l-1.643-.556.042-.127V77.091Z" fill="#f5f0f0"></path><path d="M166.676 76.528v7.461l-3.779-6.9v-1.71a21.659 21.659 0 0 0 3.779 1.149Z" fill="#000000"></path><path d="M159.37 140.264h-6.892l3.219-11.493h2.117a11.626 11.626 0 0 0-.842 4.335 12.158 12.158 0 0 0 2.398 7.158Z" fill="#000000"></path><path d="m155.7 128.771-3.219 11.493H58.706a5.74 5.74 0 0 1-5.74-5.74v-27.413l3.779-4.827v22.232A4.256 4.256 0 0 0 61 128.771Zm-42.723 5.746a3.153 3.153 0 1 0-3.155 3.152 3.153 3.153 0 0 0 3.152-3.152Z" fill="#f5f0f0"></path><path d="M154.342 78.848a1.665 1.665 0 1 1 0 3.329H115.97a1.663 1.663 0 0 1-1.177-2.841 1.647 1.647 0 0 1 1.177-.488Z" fill="#646cff52"></path><path d="M154.342 85.966a1.665 1.665 0 0 1 0 3.33H96.556a1.669 1.669 0 0 1-1.666-1.667 1.67 1.67 0 0 1 1.666-1.663Z" fill="#000000"></path><path d="M154.342 93.085a1.665 1.665 0 1 1 0 3.329h-18.958a1.667 1.667 0 0 1-1.666-1.666 1.666 1.666 0 0 1 1.666-1.663Z" fill="#646cff52"></path><path d="M154.342 100.2a1.665 1.665 0 0 1 0 3.33H93.321a1.669 1.669 0 0 1-1.667-1.667 1.67 1.67 0 0 1 1.667-1.663Z" fill="#000000"></path><path d="M154.342 107.322a1.665 1.665 0 0 1 0 3.329h-31.9a1.668 1.668 0 0 1-1.667-1.666 1.668 1.668 0 0 1 1.667-1.663Z" fill="#646cff52"></path><path d="M154.342 114.44a1.665 1.665 0 1 1 0 3.329h-9.251a1.667 1.667 0 0 1-1.666-1.666 1.668 1.668 0 0 1 1.666-1.663Z" fill="#000000"></path><path d="M154.342 121.558a1.665 1.665 0 0 1 0 3.33h-51.314a1.669 1.669 0 0 1-1.667-1.667 1.67 1.67 0 0 1 1.667-1.663Z" fill="#646cff52"></path><path d="m154.471 71.742-1.614 3.317h-49.829a1.665 1.665 0 1 1 0-3.33h51.314c.045 0 .084.01.129.013Z" fill="#000000"></path><path d="M58.706 57.311h95.222a12.012 12.012 0 0 0-.928 2.757H61a4.256 4.256 0 0 0-4.255 4.255v13.583a19.139 19.139 0 0 0-3.779-2.181V63.051a5.74 5.74 0 0 1 5.74-5.74Z" fill="#f5f0f0"></path><path d="m153.255 65.705-.078.022H72v-3.242h80.768a11.31 11.31 0 0 0 .487 3.22Z" fill="#000000"></path><path d="M135.9 114.44a1.665 1.665 0 0 1 0 3.329H71.642a1.667 1.667 0 0 1-1.666-1.666 1.668 1.668 0 0 1 1.666-1.663Z" fill="#646cff52"></path><path d="M126.192 93.085a1.665 1.665 0 0 1 0 3.329h-54.55a1.667 1.667 0 0 1-1.666-1.666 1.666 1.666 0 0 1 1.666-1.663Z" fill="#000000"></path><path fill="#f5f0f0" d="m122.215 148.518 1.366 6.021h-27.52l3.236-14.275 22.918 8.254z"></path><path fill="#000000" d="m120.345 140.264 1.87 8.254-22.918-8.254h21.048z"></path><path d="M113.249 107.322a1.665 1.665 0 0 1 0 3.329H71.642a1.667 1.667 0 0 1-1.666-1.666 1.666 1.666 0 0 1 1.666-1.663Z" fill="#000000"></path><path d="M106.778 78.848a1.665 1.665 0 1 1 0 3.329H71.642a1.665 1.665 0 1 1 0-3.329Z" fill="#000000"></path><path d="M93.835 71.729a1.665 1.665 0 0 1 0 3.33H71.642a1.667 1.667 0 0 1-1.666-1.666 1.668 1.668 0 0 1 1.666-1.664Z" fill="#646cff52"></path><path d="M93.835 121.558a1.665 1.665 0 0 1 0 3.33H71.642a1.668 1.668 0 0 1-1.666-1.667 1.668 1.668 0 0 1 1.666-1.663Z" fill="#000000"></path><path d="M87.364 85.966a1.665 1.665 0 0 1 0 3.33H71.642a1.668 1.668 0 0 1-1.666-1.667 1.668 1.668 0 0 1 1.666-1.663Z" fill="#646cff52"></path><path d="M84.128 100.2a1.665 1.665 0 0 1 0 3.33H71.642a1.668 1.668 0 0 1-1.666-1.667 1.668 1.668 0 0 1 1.666-1.663Z" fill="#646cff52"></path><path d="M62.382 86.478a1.229 1.229 0 0 1 .174 2.222v-.21c0-.165 0-.33-.013-.495v-.039a11.346 11.346 0 0 0-.161-1.478Z" fill="#000000"></path><path d="M61.942 72.153a1.24 1.24 0 1 1-1.236 1.24 1.24 1.24 0 0 1 1.236-1.24Z" fill="#000000"></path><path d="M61.942 79.272a1.239 1.239 0 1 1-1.236 1.239 1.239 1.239 0 0 1 1.236-1.239Z" fill="#000000"></path><path d="M61.942 93.509a1.239 1.239 0 0 1 0 2.478 1.256 1.256 0 0 1-1.172-.89l-.17-.107a12.562 12.562 0 0 0 .786-1.413l.055.025c.103-.102.416-.093.501-.093Z" fill="#000000"></path><path d="M61.942 107.745a1.24 1.24 0 1 1-1.236 1.24 1.24 1.24 0 0 1 1.236-1.24Z" fill="#000000"></path><path d="M61.942 114.864a1.239 1.239 0 1 1-1.236 1.239 1.239 1.239 0 0 1 1.236-1.239Z" fill="#000000"></path><path d="M61.942 121.982a1.24 1.24 0 1 1-1.236 1.239 1.239 1.239 0 0 1 1.236-1.239Z" fill="#000000"></path><path d="m55.033 100.206 1.8.851-.091.194v1.033l-3.779 4.827v-5.86a18.858 18.858 0 0 0 2.07-1.045Z" fill="#000000"></path><path d="m48.873 102.581.035.159c-1.672 3.792-3.8 7.555-6.293 9.649q-1.214 1.019-2.336 2.064a713.611 713.611 0 0 0-.877-11.713 24.184 24.184 0 0 0 4.346.391 23.823 23.823 0 0 0 5.125-.55Z" fill="#000000"></path><path d="M37.15 121.536a9.9 9.9 0 0 1 2.767-3.718c.184-.142.368-.285.556-.421a40.68 40.68 0 0 1 9.62-5c-.091.194-3.566 7.555-6.9 10.367-.773.65-1.547 1.233-2.278 1.8a20.1 20.1 0 0 0-2.1 1.841 7.559 7.559 0 0 0-2.255 5.472v.165h-1.426v-.165a31.577 31.577 0 0 1 .486-5.2 21.261 21.261 0 0 1 1.53-5.141Z" fill="#646cff52"></path><path d="M41.269 131.877v.165h-1.734a34.09 34.09 0 0 0-.725-5.637 20.1 20.1 0 0 1 2.1-1.841c.223 3.754.359 6.562.359 7.313Z" fill="#000000"></path><path d="M40.473 117.394c-.188.139-.372.282-.556.424a9.9 9.9 0 0 0-2.767 3.718c-.385-.6-.861-1.265-1.411-2.006-1.278-1.728-2.934-3.831-4.633-6.168a64.963 64.963 0 0 1-5.462-8.665s-.01-.016-.026-.045a37.826 37.826 0 0 1-.682-1.427c-7.077-15.609-2.492-31.172-2.492-31.172a74.079 74.079 0 0 1 6.814 7.1 12.818 12.818 0 0 0-4.322 9.338c0 6.921 6.17 12.723 14.466 14.25.291 3.394.595 7.578.877 11.713.065.986.133 1.969.194 2.94Z" fill="#646cff52"></path><path d="M34.924 120.759s.531 3.161.7 5.915a31.577 31.577 0 0 0-.486 5.2v.165h-1.421v-.165c.5-3.346-.013-7.112 0-8.892a22.518 22.518 0 0 1 1.207-2.223Z" fill="#000000"></path><path d="M35.739 119.53c-.284.4-.556.812-.815 1.229a22.518 22.518 0 0 0-1.207 2.223 21.883 21.883 0 0 0-2.022 9.041v.016h-.57a55.789 55.789 0 0 0-1.071-10.339c.327-1.712.5-3.653.709-5.634.094-.893.194-1.795.317-2.685l.026-.02c1.699 2.339 3.355 4.439 4.633 6.169Z" fill="#646cff52"></path><path d="M31.125 132.042h-2.52c-.165-8.575-5.963-11.283-11.768-16.175-6-5.051-12.244-18.385-12.244-18.385a71.47 71.47 0 0 1 17.524 9.228 6.488 6.488 0 0 0 .524.4c4.2 3.294 6.339 9.248 7.413 14.59a55.789 55.789 0 0 1 1.071 10.342Z" fill="#646cff52"></path><path d="m31.106 113.362-.026.02c-.123.89-.223 1.792-.317 2.685-.576-3.821-3.637-5.853-8.121-8.956-.175-.136-.347-.272-.525-.4-4.067-3.41-5.338-11.729-5.338-11.729 4.656 2.737 8.49 9.082 8.839 9.671l.026.045a64.963 64.963 0 0 0 5.462 8.664Z" fill="#000000"></path><path d="M52.966 101.251a18.858 18.858 0 0 0 2.067-1.045l1.8.851 8.8 4.142-5.7-9.244c.239-.314.466-.634.673-.965a12.488 12.488 0 0 0 .786-1.414 11.691 11.691 0 0 0 1.164-4.876v-.21c0-.165 0-.33-.013-.495" stroke-width=".647" fill="none" stroke="#000000" stroke-linecap="round" stroke-linejoin="round"></path><path d="M62.547 87.956a11.346 11.346 0 0 0-.165-1.478 13.845 13.845 0 0 0-5.637-8.572 19.139 19.139 0 0 0-3.779-2.181 22.934 22.934 0 0 0-9.218-1.876 21.226 21.226 0 0 0-14.49 5.3 12.818 12.818 0 0 0-4.322 9.338c0 6.921 6.17 12.723 14.466 14.25a24.184 24.184 0 0 0 4.346.391 23.823 23.823 0 0 0 5.125-.55 22 22 0 0 0 4.093-1.326" stroke-width=".647" fill="none" stroke="#000000" stroke-linecap="round" stroke-linejoin="round"></path><path d="m154.474 71.742.919-1.889a13.623 13.623 0 0 1-1.1-1.676 12.214 12.214 0 0 1-1.041-2.472 11.31 11.31 0 0 1-.486-3.22v-.094a11.572 11.572 0 0 1 .234-2.323 12.012 12.012 0 0 1 .926-2.757c2.653-5.584 9.554-9.564 17.65-9.564 10.386 0 18.809 6.555 18.809 14.644s-8.423 14.642-18.809 14.642a23.509 23.509 0 0 1-4.9-.508 21.4 21.4 0 0 1-3.779-1.146 19.848 19.848 0 0 1-2.6-1.275l-8.8 3.754 1.366-2.8 1.617-3.317" stroke-width=".647" fill="none" stroke="#000000" stroke-linecap="round" stroke-linejoin="round"></path><path d="m162.855 120.834-5.627-1.906 2.372 6.714a13.14 13.14 0 0 0-1.786 3.129 11.626 11.626 0 0 0-.842 4.335 12.158 12.158 0 0 0 2.4 7.158c3.219 4.465 9.364 7.484 16.414 7.484 10.387 0 18.809-6.556 18.809-14.642s-8.422-14.641-18.809-14.641a23.017 23.017 0 0 0-9.108 1.828 19.79 19.79 0 0 0-2.178 1.1Z" stroke-width=".647" fill="none" stroke="#000000" stroke-linecap="round" stroke-linejoin="round"></path><path d="M52.966 75.725V63.051a5.74 5.74 0 0 1 5.74-5.74h95.222" stroke-width=".647" fill="none" stroke="#000000" stroke-linecap="round" stroke-linejoin="round"></path><path d="M99.3 140.264H58.706a5.74 5.74 0 0 1-5.74-5.74v-33.273" stroke-width=".647" fill="none" stroke="#000000" stroke-linecap="round" stroke-linejoin="round"></path><path stroke-width=".647" fill="none" stroke="#000000" stroke-linecap="round" stroke-linejoin="round" d="M159.37 140.264h-39.025"></path><path stroke-width=".647" fill="none" stroke="#000000" stroke-linecap="round" stroke-linejoin="round" d="M166.676 76.528v43.765"></path><path d="M56.745 77.91V64.323A4.256 4.256 0 0 1 61 60.068h92" stroke-width=".647" fill="none" stroke="#000000" stroke-linecap="round" stroke-linejoin="round"></path><path d="M157.814 128.771H61a4.256 4.256 0 0 1-4.255-4.255v-23.265" stroke-width=".647" fill="none" stroke="#000000" stroke-linecap="round" stroke-linejoin="round"></path><path stroke-width=".647" fill="none" stroke="#000000" stroke-linecap="round" stroke-linejoin="round" d="M162.897 75.383v45.324"></path><path stroke-width=".647" fill="none" stroke="#000000" stroke-linecap="round" stroke-linejoin="round" d="M56.745 68.177h97.551"></path><path stroke-width=".647" fill="none" stroke="#000000" stroke-linecap="round" stroke-linejoin="round" d="M153.177 65.727H72.001v-3.242h80.739"></path><path d="M112.974 134.517a3.153 3.153 0 1 1-3.155-3.151 3.154 3.154 0 0 1 3.155 3.151Z" stroke-width=".647" fill="none" stroke="#000000" stroke-linecap="round" stroke-linejoin="round"></path><path stroke-width=".647" fill="none" stroke="#000000" stroke-linecap="round" stroke-linejoin="round" d="m96.061 154.539 3.236-14.275h21.048l1.87 8.254 1.366 6.021"></path><path stroke-width=".647" fill="none" stroke="#000000" stroke-linecap="round" stroke-linejoin="round" d="M121.652 154.539H98.815"></path><path stroke-width=".647" fill="none" stroke="#000000" stroke-linecap="round" stroke-linejoin="round" d="m99.297 140.264 22.918 8.254"></path><path stroke-width=".647" fill="none" stroke="#000000" stroke-linecap="round" stroke-linejoin="round" d="M87.354 154.539h4.99"></path><path stroke-width=".647" fill="none" stroke="#000000" stroke-linecap="round" stroke-linejoin="round" d="M93.826 154.539h4.989"></path><path stroke-width=".647" fill="none" stroke="#000000" stroke-linecap="round" stroke-linejoin="round" d="M16.17 154.539h4.99"></path><path stroke-width=".647" fill="none" stroke="#000000" stroke-linecap="round" stroke-linejoin="round" d="M40.651 154.539h12.865"></path><path stroke-width=".647" fill="none" stroke="#000000" stroke-linecap="round" stroke-linejoin="round" d="M22.642 154.539h6.749"></path><path stroke-width=".647" fill="none" stroke="#000000" stroke-linecap="round" stroke-linejoin="round" d="M121.652 154.539h4.989"></path><path stroke-width=".647" fill="none" stroke="#000000" stroke-linecap="round" stroke-linejoin="round" d="M128.123 154.539h4.99"></path><path stroke-width=".647" fill="none" stroke="#000000" stroke-linecap="round" stroke-linejoin="round" d="m65.753 66.103 3.31-1.909-3.31-1.913"></path><path stroke-width=".647" fill="none" stroke="#000000" stroke-linecap="round" stroke-linejoin="round" d="m63.614 62.281-3.313 1.913 3.313 1.909"></path><path stroke-width=".647" fill="none" stroke="#000000" stroke-linecap="round" stroke-linejoin="round" d="m162.897 77.091 3.779 6.898"></path><path stroke-width=".647" fill="none" stroke="#000000" stroke-linecap="round" stroke-linejoin="round" d="m155.697 128.771-3.219 11.493"></path><path stroke-width=".647" fill="none" stroke="#000000" stroke-linecap="round" stroke-linejoin="round" d="m56.745 102.284-3.779 4.827"></path><path d="M40.651 154.539h-11.26a6.749 6.749 0 0 1-6.749-6.749v-15.748H47.4v15.748a6.75 6.75 0 0 1-6.749 6.749Z" stroke-width=".647" fill="none" stroke="#000000" stroke-linecap="round" stroke-linejoin="round"></path><path d="M31.125 132.042a55.789 55.789 0 0 0-1.071-10.342c-1.074-5.342-3.213-11.3-7.412-14.59-.175-.136-.347-.272-.525-.4a71.47 71.47 0 0 0-17.524-9.228s6.245 13.334 12.244 18.385c5.805 4.892 11.6 7.6 11.768 16.175" stroke-width=".647" fill="none" stroke="#000000" stroke-linecap="round" stroke-linejoin="round"></path><path d="M33.717 122.985a21.883 21.883 0 0 0-2.022 9.041" stroke-width=".647" fill="none" stroke="#000000" stroke-linecap="round" stroke-linejoin="round"></path><path d="M35.739 119.53c-.284.4-.556.812-.815 1.229a22.518 22.518 0 0 0-1.207 2.223" stroke-width=".647" fill="none" stroke="#000000" stroke-linecap="round" stroke-linejoin="round"></path><path d="M48.908 102.74c-1.672 3.792-3.8 7.555-6.293 9.649q-1.214 1.019-2.336 2.064" stroke-width=".647" fill="none" stroke="#000000" stroke-linecap="round" stroke-linejoin="round"></path><path d="M30.054 121.7c.327-1.712.5-3.653.709-5.634.094-.893.194-1.795.317-2.685" stroke-width=".647" fill="none" stroke="#000000" stroke-linecap="round" stroke-linejoin="round"></path><path d="M50.1 112.389h0c-.094.2-3.569 7.558-6.9 10.37-.773.65-1.547 1.233-2.278 1.8a20.1 20.1 0 0 0-2.1 1.841 7.559 7.559 0 0 0-2.255 5.472" stroke-width=".647" fill="none" stroke="#000000" stroke-linecap="round" stroke-linejoin="round"></path><path d="M40.473 117.394a40.68 40.68 0 0 1 9.62-5" stroke-width=".647" fill="none" stroke="#000000" stroke-linecap="round" stroke-linejoin="round"></path><path d="M35.134 131.877a31.577 31.577 0 0 1 .486-5.2 21.261 21.261 0 0 1 1.53-5.138 9.9 9.9 0 0 1 2.767-3.718c.184-.142.368-.285.556-.421" stroke-width=".647" fill="none" stroke="#000000" stroke-linecap="round" stroke-linejoin="round"></path><path d="M38.81 126.405a34.09 34.09 0 0 1 .725 5.637" stroke-width=".647" fill="none" stroke="#000000" stroke-linecap="round" stroke-linejoin="round"></path><path d="M25.644 104.7a64.963 64.963 0 0 0 5.462 8.665c1.7 2.337 3.355 4.44 4.633 6.168.55.741 1.026 1.41 1.411 2.006v0" stroke-width=".647" fill="none" stroke="#000000" stroke-linecap="round" stroke-linejoin="round"></path><path d="M29.258 79.152a74.079 74.079 0 0 0-6.814-7.1s-4.585 15.563 2.492 31.172c.216.479.443.951.682 1.427" stroke-width=".647" fill="none" stroke="#000000" stroke-linecap="round" stroke-linejoin="round"></path><path d="M40.473 117.4h0c-.061-.974-.129-1.957-.194-2.944a713.611 713.611 0 0 0-.877-11.713" stroke-width=".647" fill="none" stroke="#000000" stroke-linecap="round" stroke-linejoin="round"></path><path d="M41.269 131.877c0-.751-.136-3.559-.356-7.313" stroke-width=".647" fill="none" stroke="#000000" stroke-linecap="round" stroke-linejoin="round"></path><path d="m25.644 104.7-.026-.045c-.349-.589-4.183-6.934-8.839-9.671 0 0 1.271 8.319 5.338 11.729a6.332 6.332 0 0 0 .525.4c4.484 3.1 7.545 5.135 8.121 8.956" stroke-width=".647" fill="none" stroke="#000000" stroke-linecap="round" stroke-linejoin="round"></path><path d="M33.717 122.982v0c-.013 1.78.5 5.546 0 8.892" stroke-width=".647" fill="none" stroke="#000000" stroke-linecap="round" stroke-linejoin="round"></path><path d="M34.924 120.759s.531 3.161.7 5.915" stroke-width=".647" fill="none" stroke="#000000" stroke-linecap="round" stroke-linejoin="round"></path><path stroke-width=".647" fill="none" stroke="#000000" stroke-linecap="round" stroke-linejoin="round" d="M67.407 70.49v54.721"></path><path d="M93.835 75.059H71.642a1.667 1.667 0 0 1-1.666-1.666 1.668 1.668 0 0 1 1.666-1.664h22.193a1.665 1.665 0 0 1 0 3.33Z" stroke-width=".647" fill="none" stroke="#000000" stroke-linecap="round" stroke-linejoin="round"></path><path d="M154.474 71.742h0c-.048 0-.087-.013-.132-.013h-51.314a1.665 1.665 0 1 0 0 3.33h49.829Z" stroke-width=".647" fill="none" stroke="#000000" stroke-linecap="round" stroke-linejoin="round"></path><path d="M63.181 73.393a1.238 1.238 0 1 1-1.239-1.24 1.237 1.237 0 0 1 1.239 1.24Z" stroke-width=".647" fill="none" stroke="#000000" stroke-linecap="round" stroke-linejoin="round"></path><path d="M106.778 82.177H71.642a1.665 1.665 0 1 1 0-3.329h35.136a1.665 1.665 0 1 1 0 3.329Z" stroke-width=".647" fill="none" stroke="#000000" stroke-linecap="round" stroke-linejoin="round"></path><path d="M154.342 82.177H115.97a1.663 1.663 0 0 1-1.177-2.841 1.647 1.647 0 0 1 1.177-.488h38.372a1.665 1.665 0 1 1 0 3.329Z" stroke-width=".647" fill="none" stroke="#000000" stroke-linecap="round" stroke-linejoin="round"></path><path d="M63.181 80.511a1.238 1.238 0 1 1-1.239-1.239 1.237 1.237 0 0 1 1.239 1.239Z" stroke-width=".647" fill="none" stroke="#000000" stroke-linecap="round" stroke-linejoin="round"></path><path d="M87.364 89.3H71.642a1.668 1.668 0 0 1-1.666-1.667 1.668 1.668 0 0 1 1.666-1.663h15.722a1.665 1.665 0 0 1 0 3.33Z" stroke-width=".647" fill="none" stroke="#000000" stroke-linecap="round" stroke-linejoin="round"></path><path d="M154.342 89.3H96.556a1.669 1.669 0 0 1-1.666-1.667 1.67 1.67 0 0 1 1.666-1.663h57.786a1.665 1.665 0 0 1 0 3.33Z" stroke-width=".647" fill="none" stroke="#000000" stroke-linecap="round" stroke-linejoin="round"></path><path d="M62.56 88.49c0 .071 0 .142-.007.21h0a1.229 1.229 0 0 0-.174-2.222h-.007a11.8 11.8 0 0 1 .172 1.482V88c.012.16.016.325.016.49Z" stroke-width=".647" fill="none" stroke="#000000" stroke-linecap="round" stroke-linejoin="round"></path><path d="M126.192 96.414h-54.55a1.667 1.667 0 0 1-1.666-1.666 1.666 1.666 0 0 1 1.666-1.663h54.55a1.665 1.665 0 0 1 0 3.329Z" stroke-width=".647" fill="none" stroke="#000000" stroke-linecap="round" stroke-linejoin="round"></path><path d="M154.342 96.414h-18.958a1.667 1.667 0 0 1-1.666-1.666 1.666 1.666 0 0 1 1.666-1.663h18.958a1.665 1.665 0 1 1 0 3.329Z" stroke-width=".647" fill="none" stroke="#000000" stroke-linecap="round" stroke-linejoin="round"></path><path d="M61.443 93.6c.1-.1.414-.093.5-.093a1.239 1.239 0 0 1 0 2.478 1.256 1.256 0 0 1-1.172-.89" stroke-width=".647" fill="none" stroke="#000000" stroke-linecap="round" stroke-linejoin="round"></path><path d="M84.128 103.533H71.642a1.668 1.668 0 0 1-1.666-1.667 1.668 1.668 0 0 1 1.666-1.663h12.486a1.665 1.665 0 0 1 0 3.33Z" stroke-width=".647" fill="none" stroke="#000000" stroke-linecap="round" stroke-linejoin="round"></path><path d="M154.342 103.533H93.321a1.669 1.669 0 0 1-1.667-1.667 1.67 1.67 0 0 1 1.667-1.663h61.021a1.665 1.665 0 0 1 0 3.33Z" stroke-width=".647" fill="none" stroke="#000000" stroke-linecap="round" stroke-linejoin="round"></path><path d="M113.249 110.651H71.642a1.667 1.667 0 0 1-1.666-1.666 1.666 1.666 0 0 1 1.666-1.663h41.607a1.665 1.665 0 0 1 0 3.329Z" stroke-width=".647" fill="none" stroke="#000000" stroke-linecap="round" stroke-linejoin="round"></path><path d="M154.342 110.651h-31.9a1.668 1.668 0 0 1-1.667-1.666 1.668 1.668 0 0 1 1.667-1.663h31.9a1.665 1.665 0 0 1 0 3.329Z" stroke-width=".647" fill="none" stroke="#000000" stroke-linecap="round" stroke-linejoin="round"></path><path d="M63.181 108.985a1.238 1.238 0 1 1-1.239-1.24 1.237 1.237 0 0 1 1.239 1.24Z" stroke-width=".647" fill="none" stroke="#000000" stroke-linecap="round" stroke-linejoin="round"></path><path d="M135.9 117.769H71.642a1.667 1.667 0 0 1-1.666-1.666 1.668 1.668 0 0 1 1.666-1.663H135.9a1.665 1.665 0 0 1 0 3.329Z" stroke-width=".647" fill="none" stroke="#000000" stroke-linecap="round" stroke-linejoin="round"></path><path d="M154.342 117.769h-9.251a1.667 1.667 0 0 1-1.666-1.666 1.668 1.668 0 0 1 1.666-1.663h9.251a1.665 1.665 0 1 1 0 3.329Z" stroke-width=".647" fill="none" stroke="#000000" stroke-linecap="round" stroke-linejoin="round"></path><path d="M63.181 116.1a1.238 1.238 0 1 1-1.239-1.239 1.237 1.237 0 0 1 1.239 1.239Z" stroke-width=".647" fill="none" stroke="#000000" stroke-linecap="round" stroke-linejoin="round"></path><path d="M93.835 124.888H71.642a1.668 1.668 0 0 1-1.666-1.667 1.668 1.668 0 0 1 1.666-1.663h22.193a1.665 1.665 0 0 1 0 3.33Z" stroke-width=".647" fill="none" stroke="#000000" stroke-linecap="round" stroke-linejoin="round"></path><path d="M154.342 124.888h-51.314a1.669 1.669 0 0 1-1.667-1.667 1.67 1.67 0 0 1 1.667-1.663h51.314a1.665 1.665 0 0 1 0 3.33Z" stroke-width=".647" fill="none" stroke="#000000" stroke-linecap="round" stroke-linejoin="round"></path><path d="M63.181 123.221a1.238 1.238 0 1 1-1.239-1.239 1.238 1.238 0 0 1 1.239 1.239Z" stroke-width=".647" fill="none" stroke="#000000" stroke-linecap="round" stroke-linejoin="round"></path><path d="M39.706 88.412h-.236a4.612 4.612 0 0 1 .236-9.218" stroke-width=".971" fill="none" stroke="#000000" stroke-linecap="round" stroke-linejoin="round"></path><path d="M33.157 88.406h6.549-.116a4.612 4.612 0 0 0 .116 9.222" stroke-width=".971" fill="none" stroke="#000000" stroke-linecap="round" stroke-linejoin="round"></path><path d="M47.986 88.412h.236a4.612 4.612 0 0 0-.236-9.218" stroke-width=".971" fill="none" stroke="#000000" stroke-linecap="round" stroke-linejoin="round"></path><path d="M54.535 88.406h-6.549.12a4.612 4.612 0 0 1-.12 9.222" stroke-width=".971" fill="none" stroke="#000000" stroke-linecap="round" stroke-linejoin="round"></path><path stroke-width=".971" fill="none" stroke="#000000" stroke-linecap="round" stroke-linejoin="round" d="m175.548 67.785 8.791-5.073-8.791-5.077"></path><path stroke-width=".971" fill="none" stroke="#000000" stroke-linecap="round" stroke-linejoin="round" d="m166.524 57.635-8.791 5.077 8.791 5.073"></path><path stroke-width=".647" fill="none" stroke="#000000" stroke-linecap="round" stroke-linejoin="round" d="m173.539 55.341-5.255 14.667"></path><path stroke-width=".971" fill="none" stroke="#000000" stroke-linecap="round" stroke-linejoin="round" d="m165.757 139.144 1.424-4.323 3.378-10.257 3.381 10.257 1.424 4.323"></path><path stroke-width=".971" fill="none" stroke="#000000" stroke-linecap="round" stroke-linejoin="round" d="M167.181 134.821h6.759"></path><path d="M182.679 136.627c-.928 1.99-2.666 3.145-3.876 2.582s-1.436-2.637-.508-4.63 2.663-3.145 3.876-2.582a2.3 2.3 0 0 1 1.081 2.222 5.787 5.787 0 0 1-.573 2.408Z" stroke-width=".647" fill="none" stroke="#000000" stroke-linecap="round" stroke-linejoin="round"></path><path d="M183.249 134.19v.029c.178 1.751-.893 6.362 1.9 4.485" stroke-width=".647" fill="none" stroke="#000000" stroke-linecap="round" stroke-linejoin="round"></path></svg>