<svg xmlns="http://www.w3.org/2000/svg" viewBox="0 0 200 200" height="300" width="300"><defs></defs><path d="M163.678 112.262a.684.684 0 1 1-.962.095.684.684 0 0 1 .962-.095Z" fill="#000000"></path><path d="M166.619 114.689a.685.685 0 1 1-.965.091.684.684 0 0 1 .965-.091Z" fill="#000000"></path><path d="M169.561 117.116a.686.686 0 1 1-.966.091.688.688 0 0 1 .966-.091Z" fill="#000000"></path><path fill="#000000" d="M96.561 90.757a.685.685 0 1 0 1.37 0 .685.685 0 1 0-1.37 0"></path><path fill="#000000" d="M96.561 94.569a.685.685 0 1 0 1.37 0 .685.685 0 1 0-1.37 0"></path><path fill="#000000" d="M96.561 98.381a.685.685 0 1 0 1.37 0 .685.685 0 1 0-1.37 0"></path><path fill="#000000" d="M96.561 102.193a.685.685 0 1 0 1.37 0 .685.685 0 1 0-1.37 0"></path><path d="m189.079 112.664-7.225 8.754a1.342 1.342 0 0 0 .979 2.2h.028a4.8 4.8 0 1 1-4.8 5.82.229.229 0 0 0-.007-.028 1.343 1.343 0 0 0-2.346-.546l-7.289 8.827-9.086-7.5a1.346 1.346 0 0 1 .811-2.057h.028a4.8 4.8 0 1 0-5.816-4.8v.024a1.34 1.34 0 0 1-1.861 1.189l-9.173-7.571-.123-.1 7.572-9.173a1.344 1.344 0 0 0-1.186-1.865h-.028a4.8 4.8 0 1 1 4.8-5.816.163.163 0 0 1 .007.028 1.342 1.342 0 0 0 2.053.812l7.443-9.013 8.949 7.386a1.347 1.347 0 0 1-.545 2.351h-.028a4.8 4.8 0 1 0 5.816 4.8.058.058 0 0 1 0-.024 1.343 1.343 0 0 1 2.2-.983Zm-19.427 5.418a.686.686 0 1 0-.966.091.688.688 0 0 0 .966-.091Zm-2.942-2.427a.686.686 0 1 0-.965.09.684.684 0 0 0 .965-.09Zm-2.937-2.428a.684.684 0 1 0-.966.091.684.684 0 0 0 .966-.091Z" fill="#646cff75"></path><path d="M155.925 63.631a4.8 4.8 0 0 1-7.726 4.323.283.283 0 0 0-.025-.017 1.343 1.343 0 0 0-2.157 1.073v11.447h-11.783a1.344 1.344 0 0 1-.682-2.1c.007-.007.01-.014.017-.021a4.8 4.8 0 0 0-4.322-7.729 4.8 4.8 0 0 0-3.221 7.729c.007.007.01.014.017.021a1.342 1.342 0 0 1-.682 2.1h-12.052V68.563a1.344 1.344 0 0 0-2.1-.682c-.007.007-.014.01-.021.017a4.8 4.8 0 1 1 0-7.544l.021.018a1.344 1.344 0 0 0 2.1-.682V48h11.6a1.343 1.343 0 0 1 1.074 2.158.078.078 0 0 1-.017.021 4.8 4.8 0 1 0 7.543 0c-.007-.007-.01-.014-.017-.021A1.344 1.344 0 0 1 134.57 48h11.447v11.354a1.343 1.343 0 0 0 2.157 1.074l.021-.018a4.8 4.8 0 0 1 7.73 3.221Z" fill="#646cff75"></path><path d="m121.525 144.322.111.014c1.938.186 5.17 3.694 5.908 6.184s-.371 4.022-.99 9.617-6.215 13.983-6.215 13.983l3.728 21.446H95.008L93.3 182.2s-.5.084-4.347-2.591-7.1-15.571-9.243-19.012a9.224 9.224 0 0 1-1.119-7.817c.419-1.58 4.745-4.791 6.375-6.931a53.8 53.8 0 0 1 4.54-4.932l.126.025a41.079 41.079 0 0 0 .857-10.587c-.133-2.371.657-8.218 1.783-13.685.542-2.619 1.158-5.151 1.791-7.169 1.948-6.24 7.764-3.889 7.278.909-.165 1.595-.514 4.067-.766 6.229a47.024 47.024 0 0 0-.276 2.868 76.122 76.122 0 0 0 .325 7.732c.129 2.274-1.284 8.338-.8 8.772a2.543 2.543 0 0 0 2.161.241c.287-.241 1.154-5.285 2.256-8.359s7.449-1.588 8.82.479c.822 1.239.564 3.617.224 5.551l.042.007c.878-1.448 3.113-1.14 5.61-.57s3.057 2.542 3.211 4.2a51.978 51.978 0 0 1-.623 6.762Z" fill="#ffd997"></path><path d="M113.309 104.778v11.894h-12.461l-.276-.031c.252-2.162.6-4.634.766-6.229.486-4.8-5.33-7.149-7.278-.909-.633 2.018-1.249 4.55-1.791 7.169H80.854v-11.447a1.343 1.343 0 0 1 2.158-1.073.166.166 0 0 0 .024.017 4.8 4.8 0 1 0 0-7.544l-.021.018a1.344 1.344 0 0 1-2.158-1.074V84.122h11.349a1.344 1.344 0 0 0 1.074-2.158l-.018-.021a4.8 4.8 0 1 1 7.544 0 .078.078 0 0 0-.017.021 1.343 1.343 0 0 0 1.073 2.158h11.447v11.783a1.344 1.344 0 0 1-2.1.682l-.021-.018a4.8 4.8 0 1 0 0 7.544c.007-.007.014-.01.021-.017a1.344 1.344 0 0 1 2.1.682ZM97.931 90.757a.686.686 0 1 0-.685.685.686.686 0 0 0 .685-.685Zm0 3.812a.686.686 0 1 0-.685.685.686.686 0 0 0 .685-.685Zm0 3.812a.686.686 0 1 0-.685.686.685.685 0 0 0 .685-.686Zm0 3.812a.686.686 0 1 0-.685.686.686.686 0 0 0 .685-.686Z" fill="#646cff75"></path><path d="M95.529 32.949a2.267 2.267 0 0 0 1.717.965c1.812 0 3.277-2.923 3.277-6.529a9.274 9.274 0 0 0-1.518-5.509 2.3 2.3 0 0 0-1.759-1.021c-1.812 0-3.277 2.924-3.277 6.53a9.178 9.178 0 0 0 1.56 5.564Zm17.78 3.211v11.747h-11.447a1.343 1.343 0 0 1-1.073-2.158.186.186 0 0 1 .017-.024 4.8 4.8 0 1 0-7.544 0l.018.021a1.344 1.344 0 0 1-1.074 2.158H80.854v-11.3a1.343 1.343 0 0 1 2.158-1.073.186.186 0 0 1 .024.017 4.8 4.8 0 1 0 0-7.544c-.007 0-.014.011-.021.014a1.343 1.343 0 0 1-2.158-1.07V15.5h11.349a1.344 1.344 0 0 0 1.074-2.158l-.018-.021a4.8 4.8 0 1 1 7.544 0 .089.089 0 0 0-.017.024 1.343 1.343 0 0 0 1.073 2.158h11.447v11.784a1.344 1.344 0 0 1-2.1.682l-.021-.018a4.8 4.8 0 1 0 0 7.541.085.085 0 0 0 .021-.014 1.342 1.342 0 0 1 2.1.682Z" fill="#646cff75"></path><path d="M99.005 21.876a9.274 9.274 0 0 1 1.518 5.509c0 3.606-1.465 6.529-3.277 6.529a2.267 2.267 0 0 1-1.717-.965Z" fill="#646cff75"></path><path d="m99.005 21.876-3.476 11.073a9.178 9.178 0 0 1-1.56-5.564c0-3.606 1.465-6.53 3.277-6.53a2.3 2.3 0 0 1 1.759 1.021Z" fill="#646cff75"></path><path d="M90.762 63.631a4.8 4.8 0 0 1-7.726 4.323.186.186 0 0 0-.024-.017 1.343 1.343 0 0 0-2.158 1.073v11.447H68.963a1.342 1.342 0 0 1-.682-2.1c0-.007.01-.014.014-.021a4.8 4.8 0 1 0-7.541 0 .112.112 0 0 0 .018.021 1.345 1.345 0 0 1-.682 2.1H48.3V69.01a1.343 1.343 0 0 0-2.158-1.073.078.078 0 0 0-.021.017 4.8 4.8 0 1 1 0-7.544c0 .007.01.011.017.018a1.344 1.344 0 0 0 2.162-1.074V48h11.451a1.343 1.343 0 0 1 1.073 2.158c0 .007-.01.014-.014.021a4.795 4.795 0 1 0 7.541 0 .112.112 0 0 0-.018-.021A1.345 1.345 0 0 1 69.407 48h11.447v11.354a1.344 1.344 0 0 0 2.158 1.074l.021-.018a4.762 4.762 0 0 1 3.459-1 4.81 4.81 0 0 1 4.27 4.221Z" fill="#646cff75"></path><path d="m27.379 105.719 3.949 3.591 3.592-3.945-3.949-3.591Zm28.965-3.631-7.638 8.394a1.346 1.346 0 0 0 .874 2.249h.025a4.8 4.8 0 1 1-5.075 5.582v-.028a1.344 1.344 0 0 0-2.319-.658l-7.7 8.467-24.083-21.907-.116-.105 8-8.8a1.341 1.341 0 0 0-1.095-1.916.045.045 0 0 1-.024 0 4.8 4.8 0 1 1 5.071-5.578.163.163 0 0 1 .007.028 1.341 1.341 0 0 0 2.011.909l7.866-8.645 8.586 7.81a1.343 1.343 0 0 1-.658 2.318.075.075 0 0 1-.028 0 4.8 4.8 0 1 0 5.578 5.074.045.045 0 0 0 0-.024 1.342 1.342 0 0 1 2.245-.874Z" fill="#646cff75"></path><path fill="#646cff75" d="m27.372 105.716 3.59-3.943 3.947 3.593-3.59 3.943Z"></path><path d="m124.067 195.566-3.728-21.446s5.592-8.39 6.215-13.983 1.727-7.124.989-9.617-3.969-6-5.907-6.184" fill="none" stroke="#000000" stroke-linecap="round" stroke-linejoin="round" stroke-width=".699"></path><path d="M89.5 140.919a53.8 53.8 0 0 0-4.54 4.932c-1.63 2.14-5.956 5.351-6.375 6.931a9.224 9.224 0 0 0 1.119 7.817c2.14 3.441 5.4 16.336 9.243 19.012S93.3 182.2 93.3 182.2l1.711 13.364" fill="none" stroke="#000000" stroke-linecap="round" stroke-linejoin="round" stroke-width=".699"></path><path d="M122.144 147.578a4.449 4.449 0 0 1-.773-1.825c0-.186.063-.717.154-1.431a51.978 51.978 0 0 0 .619-6.757c-.154-1.661-.714-3.633-3.211-4.2s-4.732-.878-5.61.57" fill="none" stroke="#000000" stroke-linecap="round" stroke-linejoin="round" stroke-width=".699"></path><path d="M113.323 139.23c-.531-.336-.531-1.441-.531-2.5 0-.423.262-1.514.489-2.808.34-1.934.6-4.313-.224-5.551-1.371-2.067-7.715-3.556-8.82-.479s-1.969 8.118-2.256 8.359a2.543 2.543 0 0 1-2.161-.241c-.483-.434.93-6.5.8-8.772a76.134 76.134 0 0 1-.325-7.732c.042-.78.146-1.784.276-2.868.252-2.162.6-4.634.766-6.229.486-4.8-5.33-7.149-7.278-.909-.633 2.018-1.249 4.55-1.791 7.169-1.126 5.467-1.916 11.314-1.783 13.685a41.079 41.079 0 0 1-.857 10.587 42.768 42.768 0 0 1-1.284 4.728c-2.091 6.271-5.41 6.638-4.428 11.066" fill="none" stroke="#000000" stroke-linecap="round" stroke-linejoin="round" stroke-width=".699"></path><path d="M93.3 182.2a25.766 25.766 0 0 0 3.232.951" fill="none" stroke="#000000" stroke-linecap="round" stroke-linejoin="round" stroke-width=".699"></path><path d="M95.941 108.167c-.678 1.895-1.454 3.546-.776 4.662s3.886.972 4.515 0 .584-3.69.388-4.323" fill="none" stroke="#000000" stroke-linecap="round" stroke-linejoin="round" stroke-width=".699"></path><path d="M100.848 116.672h12.461v-11.894a1.344 1.344 0 0 0-2.1-.682c-.007.007-.014.01-.021.017a4.8 4.8 0 1 1 0-7.544l.021.018a1.344 1.344 0 0 0 2.1-.682V84.122h-11.447a1.343 1.343 0 0 1-1.073-2.158.078.078 0 0 1 .017-.021 4.8 4.8 0 1 0-7.544 0l.018.021a1.344 1.344 0 0 1-1.074 2.158H80.854v11.447a1.344 1.344 0 0 0 2.158 1.074l.021-.018a4.8 4.8 0 1 1 0 7.544.166.166 0 0 1-.024-.017 1.343 1.343 0 0 0-2.158 1.073v11.447h11.418" fill="none" stroke="#000000" stroke-linecap="round" stroke-linejoin="round" stroke-width=".699"></path><path d="M80.854 48.054v11.3a1.344 1.344 0 0 0 2.158 1.074l.021-.018a4.8 4.8 0 1 1 0 7.544.186.186 0 0 0-.024-.017 1.343 1.343 0 0 0-2.158 1.073v11.447" fill="none" stroke="#000000" stroke-linecap="round" stroke-linejoin="round" stroke-width=".699"></path><path d="M113.309 47.907h-11.447a1.343 1.343 0 0 1-1.073-2.158.186.186 0 0 1 .017-.024 4.8 4.8 0 1 0-7.544 0l.018.021a1.344 1.344 0 0 1-1.074 2.158H80.854" fill="none" stroke="#000000" stroke-linecap="round" stroke-linejoin="round" stroke-width=".699"></path><path d="M113.309 80.457V68.563a1.344 1.344 0 0 0-2.1-.682c-.007.007-.014.01-.021.017a4.8 4.8 0 1 1 0-7.544l.021.018a1.344 1.344 0 0 0 2.1-.682V48.054" fill="none" stroke="#000000" stroke-linecap="round" stroke-linejoin="round" stroke-width=".699"></path><path d="M113.309 48.054V36.16a1.342 1.342 0 0 0-2.1-.682.085.085 0 0 1-.021.014 4.795 4.795 0 1 1 0-7.541l.021.018a1.344 1.344 0 0 0 2.1-.682V15.5h-11.447a1.343 1.343 0 0 1-1.073-2.158.089.089 0 0 1 .017-.024 4.8 4.8 0 1 0-7.544 0l.018.021a1.344 1.344 0 0 1-1.074 2.161H80.854v11.451a1.343 1.343 0 0 0 2.158 1.07c.007 0 .014-.01.021-.014a4.8 4.8 0 1 1 0 7.544.186.186 0 0 0-.024-.017 1.343 1.343 0 0 0-2.158 1.073v11.447" fill="none" stroke="#000000" stroke-linecap="round" stroke-linejoin="round" stroke-width=".699"></path><path d="M80.854 80.457H68.963a1.342 1.342 0 0 1-.682-2.1c0-.007.01-.014.014-.021a4.8 4.8 0 1 0-7.541 0 .112.112 0 0 0 .018.021 1.345 1.345 0 0 1-.682 2.1H48.3V69.01a1.343 1.343 0 0 0-2.158-1.073.078.078 0 0 0-.021.017 4.8 4.8 0 1 1 0-7.544c0 .007.01.011.017.018a1.344 1.344 0 0 0 2.162-1.074V48h11.451a1.343 1.343 0 0 1 1.073 2.158c0 .007-.01.014-.014.021a4.795 4.795 0 1 0 7.541 0 .112.112 0 0 0-.018-.021A1.345 1.345 0 0 1 69.407 48h11.447" fill="none" stroke="#000000" stroke-linecap="round" stroke-linejoin="round" stroke-width=".699"></path><path d="M113.467 80.457h11.894a1.342 1.342 0 0 0 .682-2.1c-.007-.007-.01-.014-.017-.021a4.8 4.8 0 1 1 7.543 0c-.007.007-.01.014-.017.021a1.344 1.344 0 0 0 .682 2.1h11.783V69.01a1.343 1.343 0 0 1 2.157-1.073.283.283 0 0 1 .025.017 4.8 4.8 0 1 0 0-7.544l-.021.018a1.343 1.343 0 0 1-2.157-1.074V48H134.57a1.344 1.344 0 0 0-1.07 2.16l.018.021a4.8 4.8 0 1 1-7.544 0 .078.078 0 0 0 .017-.021 1.343 1.343 0 0 0-1.077-2.16h-11.447" fill="none" stroke="#000000" stroke-linecap="round" stroke-linejoin="round" stroke-width=".699"></path><path d="m143.317 116.97 9.173 7.571a1.34 1.34 0 0 0 1.861-1.189v-.024a4.8 4.8 0 1 1 5.816 4.8h-.028a1.346 1.346 0 0 0-.811 2.057l9.086 7.5 7.289-8.827a1.343 1.343 0 0 1 2.346.546.229.229 0 0 1 .007.028 4.8 4.8 0 1 0 4.8-5.82h-.028a1.342 1.342 0 0 1-.979-2.2l7.225-8.754-8.827-7.288a1.343 1.343 0 0 0-2.2.983.058.058 0 0 0 0 .024 4.8 4.8 0 1 1-5.816-4.8h.028a1.347 1.347 0 0 0 .545-2.351l-8.949-7.386-7.443 9.013a1.342 1.342 0 0 1-2.053-.812.163.163 0 0 0-.007-.028 4.794 4.794 0 0 0-8.708-1.587 4.792 4.792 0 0 0 3.906 7.4h.028a1.344 1.344 0 0 1 1.186 1.865l-7.572 9.173Z" fill="none" stroke="#000000" stroke-linecap="round" stroke-linejoin="round" stroke-width=".699"></path><path d="M10.428 104.187 34.5 126.094l7.7-8.467a1.344 1.344 0 0 1 2.319.658v.028a4.8 4.8 0 1 0 5.075-5.582h-.014a1.346 1.346 0 0 1-.874-2.249l7.638-8.394-8.467-7.7a1.342 1.342 0 0 0-2.245.874.045.045 0 0 1 0 .024 4.8 4.8 0 1 1-5.578-5.074.075.075 0 0 0 .028 0 1.344 1.344 0 0 0 .658-2.319l-8.59-7.817-7.866 8.645a1.341 1.341 0 0 1-2.011-.909.163.163 0 0 0-.007-.028 4.792 4.792 0 0 0-8.621-2 4.79 4.79 0 0 0 3.55 7.582.045.045 0 0 0 .024 0 1.341 1.341 0 0 1 1.095 1.916l-8 8.8Z" fill="none" stroke="#000000" stroke-linecap="round" stroke-linejoin="round" stroke-width=".699"></path><path fill="none" stroke="#000000" stroke-linecap="round" stroke-linejoin="round" stroke-width=".699" d="m127.099 60.924-5.127 2.963 5.127 2.958"></path><path fill="none" stroke="#000000" stroke-linecap="round" stroke-linejoin="round" stroke-width=".699" d="m132.436 66.845 5.131-2.958-5.131-2.963"></path><path fill="none" stroke="#000000" stroke-linecap="round" stroke-linejoin="round" stroke-width=".699" d="m131.212 59.56-2.931 9.338"></path><path fill="none" stroke="#000000" stroke-linecap="round" stroke-linejoin="round" stroke-width=".699" d="m62.293 60.924-5.127 2.963 5.127 2.958"></path><path fill="none" stroke="#000000" stroke-linecap="round" stroke-linejoin="round" stroke-width=".699" d="m67.63 66.845 5.131-2.958-5.131-2.963"></path><path fill="none" stroke="#000000" stroke-linecap="round" stroke-linejoin="round" stroke-width=".699" d="m66.406 59.56-2.931 9.338"></path><path fill="none" stroke="#000000" stroke-linecap="round" stroke-linejoin="round" stroke-width=".699" d="m99.575 20.058-.57 1.818-3.476 11.073-.539 1.714"></path><path fill="none" stroke="#000000" stroke-linecap="round" stroke-linejoin="round" stroke-width=".699" d="m165.147 106.904-8.205 5.337"></path><path fill="none" stroke="#000000" stroke-linecap="round" stroke-linejoin="round" stroke-width=".699" d="m176.909 116.613-8.209 5.337"></path><path fill="none" stroke="#000000" stroke-linecap="round" stroke-linejoin="round" stroke-width=".699" d="M96.561 90.757a.685.685 0 1 0 1.37 0 .685.685 0 1 0-1.37 0"></path><path fill="none" stroke="#000000" stroke-linecap="round" stroke-linejoin="round" stroke-width=".699" d="M96.561 94.569a.685.685 0 1 0 1.37 0 .685.685 0 1 0-1.37 0"></path><path fill="none" stroke="#000000" stroke-linecap="round" stroke-linejoin="round" stroke-width=".699" d="M96.561 98.381a.685.685 0 1 0 1.37 0 .685.685 0 1 0-1.37 0"></path><path fill="none" stroke="#000000" stroke-linecap="round" stroke-linejoin="round" stroke-width=".699" d="M96.561 102.193a.685.685 0 1 0 1.37 0 .685.685 0 1 0-1.37 0"></path><path d="M96.56 106.005a.686.686 0 0 1 1.28-.342" fill="none" stroke="#000000" stroke-linecap="round" stroke-linejoin="round" stroke-width=".699"></path><path d="M163.678 112.262a.684.684 0 1 1-.962.095.684.684 0 0 1 .962-.095Z" fill="none" stroke="#000000" stroke-linecap="round" stroke-linejoin="round" stroke-width=".699"></path><path d="M166.619 114.689a.685.685 0 1 1-.965.091.684.684 0 0 1 .965-.091Z" fill="none" stroke="#000000" stroke-linecap="round" stroke-linejoin="round" stroke-width=".699"></path><path d="M169.561 117.116a.686.686 0 1 1-.966.091.688.688 0 0 1 .966-.091Z" fill="none" stroke="#000000" stroke-linecap="round" stroke-linejoin="round" stroke-width=".699"></path><path fill="none" stroke="#000000" stroke-linecap="round" stroke-linejoin="round" stroke-width=".699" d="m28.005 99.074 2.966 2.7 3.949 3.591 2.965 2.7"></path><path fill="none" stroke="#000000" stroke-linecap="round" stroke-linejoin="round" stroke-width=".699" d="m24.413 103.022 2.966 2.697 3.949 3.591 2.965 2.7"></path><path fill="none" stroke="#000000" stroke-linecap="round" stroke-linejoin="round" stroke-width=".699" d="m37.619 102.396-2.699 2.969-3.592 3.945-2.7 2.97"></path><path fill="none" stroke="#000000" stroke-linecap="round" stroke-linejoin="round" stroke-width=".699" d="m33.671 98.804-2.7 2.97-3.592 3.945-2.7 2.969"></path><path d="M99.005 21.876a9.274 9.274 0 0 1 1.518 5.509c0 3.606-1.465 6.529-3.277 6.529a2.267 2.267 0 0 1-1.717-.965 9.178 9.178 0 0 1-1.56-5.564c0-3.606 1.465-6.53 3.277-6.53a2.3 2.3 0 0 1 1.759 1.021Z" fill="none" stroke="#000000" stroke-linecap="round" stroke-linejoin="round" stroke-width=".699"></path><path fill="none" stroke="#000000" stroke-linecap="round" stroke-linejoin="round" stroke-width=".699" d="m134.244 28.165-4.235 2.916"></path><path fill="none" stroke="#000000" stroke-linecap="round" stroke-linejoin="round" stroke-width=".699" d="m133.583 31.742-2.913-4.235"></path><path fill="none" stroke="#000000" stroke-linecap="round" stroke-linejoin="round" stroke-width=".699" d="M129.341 103.603v5.141"></path><path fill="none" stroke="#000000" stroke-linecap="round" stroke-linejoin="round" stroke-width=".699" d="M131.912 106.173h-5.145"></path><path fill="none" stroke="#000000" stroke-linecap="round" stroke-linejoin="round" stroke-width=".699" d="m70.103 130.536-4.945 1.399"></path><path fill="none" stroke="#000000" stroke-linecap="round" stroke-linejoin="round" stroke-width=".699" d="m68.33 133.708-1.399-4.949"></path><path fill="none" stroke="#000000" stroke-linecap="round" stroke-linejoin="round" stroke-width=".699" d="m66.588 35.523-1.595 4.889"></path><path fill="none" stroke="#000000" stroke-linecap="round" stroke-linejoin="round" stroke-width=".699" d="m68.235 38.769-4.889-1.599"></path></svg>