<svg xmlns="http://www.w3.org/2000/svg" fill="none" viewBox="0 0 300 300" height="300" width="300"><path fill="#ccf0f8" d="M71.512 26.99c-7.995-4.617-14.477-.875-14.477 8.358l.001 40.122c0 9.233 6.483 20.46 14.479 25.077l24.253 14.003c2.879 1.663 5.64 4.577 7.676 8.104 2.035 3.526 3.179 7.374 3.179 10.699l.001 15.889c0 3.324-1.144 5.852-3.179 7.027-2.036 1.175-4.797.902-7.676-.761l-24.253-14.003c-7.996-4.617-14.478-.875-14.477 8.358l.001 40.123c0 9.232 6.483 20.46 14.478 25.076l34.747 20.063c7.995 4.616 14.477.874 14.477-8.359l-.001-28.005c0-3.325 1.143-5.853 3.179-7.028 2.035-1.175 4.796-.902 7.675.761l13.76 7.945c2.879 1.662 5.64 4.577 7.676 8.103 2.036 3.526 3.18 7.375 3.18 10.699l.001 28.006c0 9.232 6.482 20.46 14.478 25.076l34.746 20.063c7.996 4.616 14.478.874 14.477-8.359l-.001-40.122c0-9.233-6.482-20.46-14.478-25.077l-24.253-14.003c-2.879-1.663-5.64-4.578-7.676-8.104-2.036-3.526-3.18-7.374-3.18-10.699v-15.889c0-3.324 1.143-5.852 3.179-7.027 2.035-1.175 4.796-.902 7.675.76l24.254 14.004c7.995 4.617 14.477.875 14.477-8.358l-.002-40.123c0-9.232-6.482-20.46-14.478-25.076L170.684 84.25c-7.996-4.616-14.477-.874-14.477 8.359l.001 28.005c0 3.325-1.144 5.852-3.179 7.028-2.036 1.175-4.797.901-7.676-.761l-13.76-7.945c-2.879-1.662-5.64-4.577-7.676-8.103-2.036-3.526-3.179-7.375-3.179-10.699l-.001-28.006c-.001-9.233-6.483-20.46-14.478-25.077L71.512 26.99Z"></path><path fill="#646cff75" d="M57.035 35.348h-.5.5Zm14.477-8.359-.25.433.25-.433ZM57.036 75.47h.5-.5Zm14.479 25.078.25-.433-.25.433Zm0 40.958-.25.433.25-.433Zm-14.476 8.358h-.5.5Zm.001 40.123h.5-.5Zm14.478 25.076.25-.433-.25.433Zm34.747 20.063-.251.433.251-.433Zm14.477-8.359h-.5.5Zm35.47 20.481h-.5.5Zm14.478 25.076-.25.433.25-.433Zm34.746 20.063.25-.433-.25.433Zm14.477-8.359h.5-.5Zm-.001-40.122h-.5.5Zm-14.478-25.077-.25.433.25-.433Zm-.001-40.958.25-.433-.25.433Zm14.477-8.358h.5-.5Zm-.002-40.123h-.5.5Zm-14.478-25.076-.25.433.25-.433ZM170.684 84.25l.25-.433-.25.433Zm-14.477 8.359h.5-.5Zm-35.47-20.48h-.5.5ZM106.259 47.05l-.25.433.25-.433Zm25.334 71.885-.25.433.25-.433Zm13.76 7.945.25-.433-.25.433Zm10.855-6.267h-.5.5Zm24.973 84.211.25-.433-.25.433Zm-85.412-49.317.25-.432-.25.432Zm60.442 63.733h.5-.5Zm-49.587-69.999h-.5.5Zm38.731 51.197-.25.433.25-.433Zm-38.732-67.086h.5-.5Zm63.702 52.669h-.5.5Zm-49.587-85.888h.5-.5Zm.003 98.627h.5-.5Zm49.584-28.628h.5-.5Zm-38.73 22.361.25-.433-.25.433Zm49.584-28.628-.25.433.25-.433ZM95.768 114.55l-.25.433.25-.433ZM57.535 35.348c0-4.512 1.58-7.548 3.99-8.94 2.41-1.392 5.83-1.242 9.737 1.014l.5-.866c-4.089-2.36-7.908-2.648-10.737-1.014-2.829 1.633-4.49 5.084-4.49 9.806h1Zm.001 40.122V35.348h-1V75.47h1Zm14.229 24.644c-3.904-2.254-7.467-6.142-10.055-10.625-2.588-4.482-4.173-9.511-4.174-14.02h-1c0 4.726 1.656 9.927 4.308 14.52 2.652 4.594 6.329 8.628 10.42 10.991l.5-.866Zm24.253 14.003-24.253-14.003-.5.866 24.253 14.003.5-.866Zm11.106 35.125-.001-15.889h-1l.001 15.889h1Zm-35.858-7.304 24.253 14.004.5-.866-24.253-14.004-.5.866Zm-13.727 7.925c0-4.511 1.58-7.548 3.99-8.939 2.41-1.392 5.83-1.242 9.737 1.014l.5-.866c-4.09-2.361-7.908-2.648-10.737-1.014-2.83 1.633-4.49 5.084-4.49 9.805h1Zm.001 40.123-.001-40.123h-1l.001 40.123h1Zm14.228 24.643c-3.904-2.254-7.466-6.142-10.054-10.624s-4.174-9.511-4.174-14.019h-1c0 4.724 1.656 9.925 4.308 14.519 2.652 4.594 6.328 8.628 10.42 10.99l.5-.866Zm34.747 20.063-34.747-20.063-.5.866 34.746 20.063.501-.866Zm13.727-7.926c0 4.512-1.58 7.548-3.99 8.94-2.411 1.392-5.831 1.241-9.737-1.014l-.501.866c4.089 2.361 7.908 2.647 10.738 1.014 2.829-1.633 4.49-5.084 4.49-9.806h-1Zm-.001-28.005.001 28.005h1l-.001-28.005h-1Zm25.364 1.245-13.76-7.945-.5.866 13.76 7.945.5-.866Zm11.107 47.241-.001-28.006h-1l.001 28.006h1Zm14.228 24.643c-3.904-2.254-7.467-6.142-10.054-10.624-2.588-4.482-4.174-9.511-4.174-14.019h-1c0 4.724 1.655 9.925 4.308 14.519 2.652 4.594 6.328 8.628 10.42 10.99l.5-.866Zm34.746 20.063L170.94 271.89l-.5.866 34.746 20.063.5-.866Zm13.727-7.926c0 4.512-1.579 7.548-3.99 8.94-2.41 1.392-5.83 1.241-9.737-1.014l-.5.866c4.089 2.361 7.908 2.647 10.737 1.014 2.829-1.633 4.49-5.084 4.49-9.806h-1Zm-.001-40.122.001 40.122h1l-.001-40.122h-1Zm-14.228-24.644c3.904 2.254 7.466 6.142 10.054 10.625 2.588 4.482 4.174 9.511 4.174 14.019h1c0-4.725-1.655-9.926-4.308-14.519-2.652-4.594-6.328-8.628-10.42-10.991l-.5.866Zm-24.253-14.003 24.253 14.003.5-.866-24.253-14.003-.5.866Zm-11.106-35.125v15.889h1v-15.889h-1Zm35.858 7.304-24.254-14.004-.5.866 24.254 14.004.5-.866Zm13.727-7.925c0 4.511-1.58 7.548-3.99 8.939-2.411 1.392-5.831 1.242-9.737-1.014l-.5.866c4.088 2.361 7.908 2.648 10.737 1.014 2.829-1.633 4.49-5.084 4.49-9.805h-1Zm-.002-40.123.002 40.123h1l-.002-40.123h-1Zm-14.228-24.643c3.904 2.254 7.467 6.142 10.055 10.624 2.587 4.482 4.173 9.511 4.173 14.019h1c0-4.724-1.655-9.925-4.307-14.519-2.653-4.594-6.329-8.628-10.421-10.99l-.5.866Zm-34.746-20.063 34.746 20.063.5-.866-34.746-20.063-.5.866Zm-13.727 7.926c0-4.512 1.579-7.548 3.99-8.94 2.41-1.392 5.83-1.242 9.737 1.014l.5-.866c-4.089-2.36-7.908-2.647-10.737-1.014-2.829 1.633-4.49 5.084-4.49 9.806h1Zm.001 28.005-.001-28.005h-1l.001 28.005h1Zm-25.365-1.245 13.76 7.945.5-.866-13.76-7.945-.5.866Zm-11.106-47.24.001 28.005h1l-.001-28.006h-1Zm-14.228-24.645c3.903 2.255 7.466 6.143 10.054 10.625s4.174 9.511 4.174 14.02h1c0-4.726-1.656-9.926-4.308-14.52-2.652-4.594-6.329-8.628-10.42-10.99l-.5.865ZM71.262 27.422l34.747 20.062.5-.866-34.747-20.062-.5.866Zm60.581 91.081c-2.788-1.609-5.491-4.453-7.493-7.92l-.866.5c2.07 3.585 4.889 6.571 7.859 8.286l.5-.866Zm20.936 8.706c-1.821 1.051-4.38.853-7.176-.761l-.5.866c2.962 1.711 5.925 2.06 8.176.761l-.5-.866Zm2.929-6.595c0 3.228-1.109 5.543-2.929 6.595l.5.866c2.25-1.3 3.429-4.04 3.429-7.461h-1Zm25.723 83.778c-2.788-1.61-5.491-4.454-7.493-7.921l-.866.5c2.07 3.586 4.888 6.572 7.859 8.287l.5-.866Zm-78.236-48.556c-1.821 1.051-4.38.854-7.176-.76l-.5.866c2.962 1.71 5.925 2.059 8.176.76l-.5-.866Zm49.403 52.956c2.002 3.467 3.113 7.23 3.113 10.449h1c0-3.43-1.177-7.364-3.247-10.949l-.866.5Zm-46.474-59.55c0 3.228-1.109 5.543-2.929 6.594l.5.866c2.25-1.299 3.429-4.04 3.429-7.46h-1Zm38.981 51.63c2.788 1.609 5.491 4.453 7.493 7.92l.866-.5c-2.07-3.585-4.888-6.571-7.859-8.286l-.5.866Zm-42.094-77.968c2.001 3.467 3.112 7.23 3.112 10.449h1c0-3.43-1.177-7.364-3.246-10.949l-.866.5Zm70.927 73.567c-2.002-3.467-3.113-7.23-3.113-10.449h-1c0 3.43 1.177 7.364 3.247 10.949l.866-.5Zm-49.588-85.888c-2.001-3.467-3.112-7.23-3.112-10.449h-1c0 3.43 1.176 7.364 3.246 10.949l.866-.5Zm-3.109 88.178c0-3.228 1.108-5.544 2.929-6.595l-.5-.866c-2.251 1.299-3.429 4.04-3.429 7.461h1Zm49.584-28.628c0-3.228 1.108-5.543 2.929-6.594l-.5-.866c-2.251 1.299-3.429 4.04-3.429 7.46h1Zm-46.655 22.033c1.821-1.051 4.38-.853 7.175.761l.5-.866c-2.962-1.711-5.925-2.06-8.175-.761l.5.866Zm49.584-28.627c1.821-1.051 4.38-.854 7.175.76l.5-.866c-2.962-1.71-5.925-2.059-8.175-.76l.5.866Zm-78.236-48.556c2.787 1.61 5.491 4.453 7.493 7.921l.866-.5c-2.07-3.586-4.889-6.572-7.86-8.287l-.5.866Z"></path><path fill="#646cff75" stroke="#646cff75" stroke-linecap="round" d="M135.516 26.59 100.77 6.527c-3.507-2.025-5.996-2.984-9.228-1.492-3.22 1.486-29.61 20.55-29.827 20.707 2.578-1.248 6.018-.934 9.796 1.248l34.747 20.062c7.995 4.617 14.478 15.844 14.478 25.077l.001 28.006c0 3.324 1.144 7.173 3.179 10.699 2.036 3.526 4.797 6.441 7.676 8.103l13.76 7.945c2.879 1.662 5.64 1.936 7.676.761 2.035-1.176 3.179-3.704 3.179-7.028l-.001-26.028a25.687 25.687 0 0 1-3.031-4.216c-2.036-3.526-3.179-7.374-3.18-10.699V51.667c-.001-9.233-6.483-20.46-14.479-25.077Z"></path><path fill="#646cff75" stroke="#646cff75" stroke-linecap="round" d="m145.356 200.44-13.76-7.945c-2.879-1.662-5.64-1.936-7.676-.76-2.036 1.175-3.179 3.703-3.179 7.027l.001 28.006c0 8.656-5.697 12.486-12.997 9.127 3.07 1.412 5.856 1.554 8.054.6 4.256-1.847 13.829-8.944 21.534-14.655h0l.001-.001c3.599-2.668 6.79-5.033 8.84-6.42 2.376-1.607 3.827-4.746 3.826-9.114v-1.977l-.426-.466c-1.322-1.408-2.755-2.577-4.218-3.422Z"></path><path fill="#646cff75" stroke="#646cff75" stroke-linecap="round" d="M181.179 163.866c-2.879-1.662-5.64-1.935-7.676-.76-2.035 1.175-3.179 3.703-3.179 7.027l.001 15.889c0 3.325 1.144 7.173 3.179 10.699 2.036 3.526 4.797 6.441 7.676 8.104l24.253 14.003c7.996 4.617 14.478 15.844 14.478 25.077l.002 40.122c0 3.763-1.077 6.614-2.894 8.359l-.92.747c1.297-.881 2.771-1.876 4.357-2.948l.009-.006h0c8.387-5.665 19.931-13.464 25.359-17.855 2.09-1.692 3.348-4.693 3.347-8.759l-.001-40.123c0-9.233-6.482-20.46-14.478-25.077l-24.253-14.003c-2.85-1.646-5.585-4.519-7.614-7.997l-21.646-12.499Z"></path><path fill="#646cff75" stroke="#646cff75" stroke-linecap="round" d="M161.664 82.683c2.474-.85 5.61-.402 9.021 1.568l34.746 20.062c7.996 4.617 14.478 15.844 14.478 25.077l.001 40.122c0 3.744-1.065 6.585-2.865 8.332l28.66-19.943c2.16-1.673 3.464-4.71 3.464-8.851l-.001-40.123c-.001-9.233-6.483-20.46-14.478-25.077l-34.747-20.062c-3.968-2.291-7.563-2.523-10.178-1.048l-28.101 19.943Z"></path></svg>