<svg xmlns="http://www.w3.org/2000/svg" fill="none" viewBox="0 0 302 300" height="300" width="300"><path fill="#646cff" d="M.954 279.228a.5.5 0 1 0 .516.856l-.516-.856Zm300.487-7.517a.5.5 0 0 0-.457-.889l.457.889Zm-299.97 8.373c26.534-15.984 48.844-19.549 69.793-17.166 20.986 2.388 40.619 10.74 61.854 18.666 21.212 7.917 43.972 15.385 71.097 15.898 27.131.513 58.592-5.93 97.226-25.771l-.457-.889c-38.509 19.776-69.808 26.17-96.75 25.66-26.949-.51-49.578-7.926-70.767-15.835-21.167-7.901-40.95-16.317-62.09-18.722-21.178-2.41-43.708 1.209-70.423 17.303l.516.856Z"></path><path fill="#646cff" d="M1.053 202.393a.5.5 0 1 0 .318.948l-.318-.948Zm128.364 24.414-.274.418.274-.418Zm138.462 8.324.237.441.014-.008-.251-.433Zm33.584-18.926a.501.501 0 0 0-.502-.865l.502.865ZM1.371 203.341c19.104-6.411 73.778-11.475 127.772 23.884l.548-.837c-54.28-35.547-109.28-30.491-128.638-23.995l.318.948Zm127.772 23.884c33.346 21.837 86.969 36.337 138.973 8.347l-.474-.881c-51.586 27.765-104.808 13.401-137.951-8.303l-.548.837Zm138.987 8.339 33.333-19.359-.502-.865-33.333 19.359.502.865Z"></path><path fill="#646cff" d="M.232 134.686a.5.5 0 1 0 .536.843l-.536-.843Zm129.705 19.135.27-.42-.003-.003-.267.423ZM261.212 162l.251.433.004-.003-.255-.43Zm40.255-23.236a.5.5 0 0 0-.509-.86l.509.86ZM.768 135.529C17.138 125.112 66 114.061 129.67 154.244l.534-.846C66.268 113.048 16.984 124.023.232 134.686l.536.843Zm128.899 18.713c22.467 14.426 71.03 43.344 131.796 8.191l-.501-.866c-60.235 34.847-108.333 6.231-130.755-8.166l-.54.841Zm131.8 8.188 40-23.666-.509-.86-40 23.666.509.86Z"></path><path fill="#646cff" d="M.943 70.225a.5.5 0 0 0 .538.843l-.538-.843Zm162.66 22.362.271-.42-.271.42ZM301.446 96.9a.5.5 0 0 0-.468-.884l.468.884ZM1.481 71.068c8.15-5.2 29.584-11.97 58.528-11.301 28.92.668 65.296 8.764 103.324 33.24l.541-.84c-38.194-24.584-74.752-32.728-103.842-33.4C30.965 58.095 9.315 64.884.943 70.225l.538.843Zm161.852 21.94c36.73 23.64 85.243 31.862 138.113 3.892l-.468-.884c-52.521 27.785-100.649 19.614-137.104-3.85l-.541.841Z"></path><path fill="#646cff" d="M1.053 6.635a.5.5 0 0 0 .318.949l-.318-.949ZM129.417 31.05l-.274.419.274-.419Zm138.462 8.325.237.44.014-.008-.251-.432Zm33.584-18.927a.5.5 0 0 0-.502-.864l.502.864ZM1.371 7.584C20.475 1.173 75.15-3.891 129.143 31.468l.548-.837C75.411-4.916 20.411.14 1.053 6.635l.318.949Zm127.772 23.884c33.346 21.837 86.969 36.336 138.973 8.346l-.474-.88c-51.586 27.764-104.808 13.401-137.951-8.303l-.548.837Zm138.987 8.338 33.333-19.359-.502-.864-33.333 19.359.502.864Z"></path></svg>