<svg xmlns="http://www.w3.org/2000/svg" fill="none" viewBox="0 0 300 301" height="300" width="300"><path stroke="#646cff75" stroke-linecap="round" stroke-linejoin="round" d="M28.25 1.625c-3.292 12.542-7.2 40.1 3.5 50 3.9 3.608 6.879 3.607 10.375 6.25 15.375 11.625 2.48 18.044-8.25 24.75-6 3.75-8.625 7.75-7.625 18 .667 2.833 2.45 10.475 4.25 18.375 2.25 9.875-5.625 17-9.125 18.75s-13 5.375-12.625 12.125 2.375 8 7.875 10.625 11.625 4.375 15.75 19.625-.75 21.125-1.75 22.625-2 4.375-7.5 7-6.5 3.5-6.5 6.625 2.375 4.875 4.75 5.875 7.625 4.125 7.5 11.125-3.5 7.875-1.75 13.875c1.4 4.8 6.333 6.667 8.625 7 4.375 1.708 11.05 6.625 2.75 12.625-3.542 1.292-10.775 5.675-11.375 12.875-.6 7.2.917 16.583 1.75 20.375"></path><path stroke="#646cff75" stroke-linecap="round" stroke-linejoin="round" d="M189.859 1c-3.291 12.542-7.2 40.1 3.5 50 3.9 3.608 6.879 3.607 10.375 6.25 15.375 11.625 2.48 18.044-8.25 24.75-6 3.75-8.625 7.75-7.625 18 .667 2.833 2.45 10.475 4.25 18.375 2.25 9.875-5.625 17-9.125 18.75s-13 5.375-12.625 12.125 2.375 8 7.875 10.625 11.625 4.375 15.75 19.625-.75 21.125-1.75 22.625-2 4.375-7.5 7-6.5 3.5-6.5 6.625 2.375 4.875 4.75 5.875 7.625 4.125 7.5 11.125-3.5 7.875-1.75 13.875c1.4 4.8 6.334 6.667 8.625 7 4.375 1.708 11.05 6.625 2.75 12.625-3.541 1.292-10.775 5.675-11.375 12.875-.6 7.2.917 16.583 1.75 20.375"></path><path stroke="#646cff75" stroke-linecap="round" stroke-linejoin="round" d="M48.482 1.625c-3.291 12.542-7.2 40.1 3.5 50 3.9 3.608 6.88 3.607 10.375 6.25 15.375 11.625 2.48 18.044-8.25 24.75-6 3.75-8.625 7.75-7.625 18 .667 2.833 2.45 10.475 4.25 18.375 2.25 9.875-5.625 17-9.125 18.75s-13 5.375-12.625 12.125 2.375 8 7.875 10.625 11.625 4.375 15.75 19.625-.75 21.125-1.75 22.625-2 4.375-7.5 7-6.5 3.5-6.5 6.625 2.375 4.875 4.75 5.875 7.625 4.125 7.5 11.125-3.5 7.875-1.75 13.875c1.4 4.8 6.334 6.667 8.625 7 4.375 1.708 11.05 6.625 2.75 12.625-3.541 1.292-10.775 5.675-11.375 12.875-.6 7.2.917 16.583 1.75 20.375"></path><path stroke="#646cff75" stroke-linecap="round" stroke-linejoin="round" d="M210.092 1c-3.292 12.542-7.2 40.1 3.5 50 3.9 3.608 6.879 3.607 10.375 6.25 15.375 11.625 2.479 18.044-8.25 24.75-6 3.75-8.625 7.75-7.625 18 .666 2.833 2.45 10.475 4.25 18.375 2.25 9.875-5.625 17-9.125 18.75s-13 5.375-12.625 12.125 2.375 8 7.875 10.625 11.625 4.375 15.75 19.625-.75 21.125-1.75 22.625-2 4.375-7.5 7-6.5 3.5-6.5 6.625 2.375 4.875 4.75 5.875 7.625 4.125 7.5 11.125-3.5 7.875-1.75 13.875c1.4 4.8 6.333 6.667 8.625 7 4.375 1.708 11.05 6.625 2.75 12.625-3.542 1.292-10.775 5.675-11.375 12.875-.6 7.2.916 16.583 1.75 20.375"></path><path stroke="#646cff75" stroke-linecap="round" stroke-linejoin="round" d="M68.715 1.625c-3.292 12.542-7.2 40.1 3.5 50 3.9 3.608 6.879 3.607 10.375 6.25 15.375 11.625 2.479 18.044-8.25 24.75-6 3.75-8.625 7.75-7.625 18 .666 2.833 2.45 10.475 4.25 18.375 2.25 9.875-5.625 17-9.125 18.75s-13 5.375-12.625 12.125 2.375 8 7.875 10.625 11.625 4.375 15.75 19.625-.75 21.125-1.75 22.625-2 4.375-7.5 7-6.5 3.5-6.5 6.625 2.375 4.875 4.75 5.875 7.625 4.125 7.5 11.125-3.5 7.875-1.75 13.875c1.4 4.8 6.333 6.667 8.625 7 4.375 1.708 11.05 6.625 2.75 12.625-3.542 1.292-10.775 5.675-11.375 12.875-.6 7.2.916 16.583 1.75 20.375"></path><path stroke="#646cff75" stroke-linecap="round" stroke-linejoin="round" d="M230.324 1c-3.291 12.542-7.2 40.1 3.5 50 3.9 3.608 6.879 3.607 10.375 6.25 15.375 11.625 2.479 18.044-8.25 24.75-6 3.75-8.625 7.75-7.625 18 .667 2.833 2.45 10.475 4.25 18.375 2.25 9.875-5.625 17-9.125 18.75s-13 5.375-12.625 12.125 2.375 8 7.875 10.625 11.625 4.375 15.75 19.625-.75 21.125-1.75 22.625-2 4.375-7.5 7-6.5 3.5-6.5 6.625 2.375 4.875 4.75 5.875 7.625 4.125 7.5 11.125-3.5 7.875-1.75 13.875c1.4 4.8 6.334 6.667 8.625 7 4.375 1.708 11.05 6.625 2.75 12.625-3.541 1.292-10.775 5.675-11.375 12.875-.6 7.2.917 16.583 1.75 20.375"></path><path stroke="#646cff75" stroke-linecap="round" stroke-linejoin="round" d="M260.307 1c-3.292 12.542-7.2 40.1 3.5 50 3.899 3.608 6.879 3.607 10.375 6.25 15.375 11.625 2.479 18.044-8.25 24.75-6 3.75-8.625 7.75-7.625 18 .666 2.833 2.45 10.475 4.25 18.375 2.25 9.875-5.625 17-9.125 18.75s-13 5.375-12.625 12.125 2.375 8 7.875 10.625 11.625 4.375 15.75 19.625-.75 21.125-1.75 22.625-2 4.375-7.5 7-6.5 3.5-6.5 6.625 2.375 4.875 4.75 5.875 7.625 4.125 7.5 11.125-3.5 7.875-1.75 13.875c1.4 4.8 6.333 6.667 8.625 7 4.375 1.708 11.05 6.625 2.75 12.625-3.542 1.292-10.775 5.675-11.375 12.875-.6 7.2.916 16.583 1.75 20.375"></path><path stroke="#646cff75" stroke-linecap="round" stroke-linejoin="round" d="M109.18 1.625c-3.292 12.542-7.2 40.1 3.5 50 3.899 3.608 6.879 3.607 10.375 6.25 15.375 11.625 2.479 18.044-8.25 24.75-6 3.75-8.625 7.75-7.625 18 .666 2.833 2.45 10.475 4.25 18.375 2.25 9.875-5.625 17-9.125 18.75s-13 5.375-12.625 12.125 2.375 8 7.875 10.625 11.625 4.375 15.75 19.625-.75 21.125-1.75 22.625-2 4.375-7.5 7-6.5 3.5-6.5 6.625 2.375 4.875 4.75 5.875 7.625 4.125 7.5 11.125-3.5 7.875-1.75 13.875c1.4 4.8 6.333 6.667 8.625 7 4.375 1.708 11.05 6.625 2.75 12.625-3.542 1.292-10.775 5.675-11.375 12.875-.6 7.2.916 16.583 1.75 20.375"></path><path stroke="#646cff75" stroke-linecap="round" stroke-linejoin="round" d="M149.395 1.625c-3.292 12.542-7.2 40.1 3.5 50 3.899 3.608 6.879 3.607 10.375 6.25 15.375 11.625 2.479 18.044-8.25 24.75-6 3.75-8.625 7.75-7.625 18 .666 2.833 2.45 10.475 4.25 18.375 2.25 9.875-5.625 17-9.125 18.75s-13 5.375-12.625 12.125 2.375 8 7.875 10.625 11.625 4.375 15.75 19.625-.75 21.125-1.75 22.625-2 4.375-7.5 7-6.5 3.5-6.5 6.625 2.375 4.875 4.75 5.875 7.625 4.125 7.5 11.125-3.5 7.875-1.75 13.875c1.4 4.8 6.333 6.667 8.625 7 4.375 1.708 11.05 6.625 2.75 12.625-3.542 1.292-10.775 5.675-11.375 12.875-.6 7.2.916 16.583 1.75 20.375"></path><path stroke="#646cff75" stroke-linecap="round" stroke-linejoin="round" d="M38.25 1.625c-3.292 12.542-7.2 40.1 3.5 50 3.9 3.608 6.879 3.607 10.375 6.25 15.375 11.625 2.48 18.044-8.25 24.75-6 3.75-8.625 7.75-7.625 18 .667 2.833 2.45 10.475 4.25 18.375 2.25 9.875-5.625 17-9.125 18.75s-13 5.375-12.625 12.125 2.375 8 7.875 10.625 11.625 4.375 15.75 19.625-.75 21.125-1.75 22.625-2 4.375-7.5 7-6.5 3.5-6.5 6.625 2.375 4.875 4.75 5.875 7.625 4.125 7.5 11.125-3.5 7.875-1.75 13.875c1.4 4.8 6.333 6.667 8.625 7 4.375 1.708 11.05 6.625 2.75 12.625-3.542 1.292-10.775 5.675-11.375 12.875-.6 7.2.917 16.583 1.75 20.375"></path><path stroke="#646cff75" stroke-linecap="round" stroke-linejoin="round" d="M199.859 1c-3.291 12.542-7.2 40.1 3.5 50 3.9 3.608 6.879 3.607 10.375 6.25 15.375 11.625 2.48 18.044-8.25 24.75-6 3.75-8.625 7.75-7.625 18 .667 2.833 2.45 10.475 4.25 18.375 2.25 9.875-5.625 17-9.125 18.75s-13 5.375-12.625 12.125 2.375 8 7.875 10.625 11.625 4.375 15.75 19.625-.75 21.125-1.75 22.625-2 4.375-7.5 7-6.5 3.5-6.5 6.625 2.375 4.875 4.75 5.875 7.625 4.125 7.5 11.125-3.5 7.875-1.75 13.875c1.4 4.8 6.334 6.667 8.625 7 4.375 1.708 11.05 6.625 2.75 12.625-3.541 1.292-10.775 5.675-11.375 12.875-.6 7.2.917 16.583 1.75 20.375"></path><path stroke="#646cff75" stroke-linecap="round" stroke-linejoin="round" d="M58.482 1.625c-3.291 12.542-7.2 40.1 3.5 50 3.9 3.608 6.88 3.607 10.375 6.25 15.375 11.625 2.48 18.044-8.25 24.75-6 3.75-8.625 7.75-7.625 18 .667 2.833 2.45 10.475 4.25 18.375 2.25 9.875-5.625 17-9.125 18.75s-13 5.375-12.625 12.125 2.375 8 7.875 10.625 11.625 4.375 15.75 19.625-.75 21.125-1.75 22.625-2 4.375-7.5 7-6.5 3.5-6.5 6.625 2.375 4.875 4.75 5.875 7.625 4.125 7.5 11.125-3.5 7.875-1.75 13.875c1.4 4.8 6.334 6.667 8.625 7 4.375 1.708 11.05 6.625 2.75 12.625-3.541 1.292-10.775 5.675-11.375 12.875-.6 7.2.917 16.583 1.75 20.375"></path><path stroke="#646cff75" stroke-linecap="round" stroke-linejoin="round" d="M220.092 1c-3.292 12.542-7.2 40.1 3.5 50 3.9 3.608 6.879 3.607 10.375 6.25 15.375 11.625 2.479 18.044-8.25 24.75-6 3.75-8.625 7.75-7.625 18 .666 2.833 2.45 10.475 4.25 18.375 2.25 9.875-5.625 17-9.125 18.75s-13 5.375-12.625 12.125 2.375 8 7.875 10.625 11.625 4.375 15.75 19.625-.75 21.125-1.75 22.625-2 4.375-7.5 7-6.5 3.5-6.5 6.625 2.375 4.875 4.75 5.875 7.625 4.125 7.5 11.125-3.5 7.875-1.75 13.875c1.4 4.8 6.333 6.667 8.625 7 4.375 1.708 11.05 6.625 2.75 12.625-3.542 1.292-10.775 5.675-11.375 12.875-.6 7.2.916 16.583 1.75 20.375"></path><path stroke="#646cff75" stroke-linecap="round" stroke-linejoin="round" d="M250.074 1c-3.291 12.542-7.2 40.1 3.5 50 3.9 3.608 6.879 3.607 10.375 6.25 15.375 11.625 2.479 18.044-8.25 24.75-6 3.75-8.625 7.75-7.625 18 .667 2.833 2.45 10.475 4.25 18.375 2.25 9.875-5.625 17-9.125 18.75s-13 5.375-12.625 12.125 2.375 8 7.875 10.625 11.625 4.375 15.75 19.625-.75 21.125-1.75 22.625-2 4.375-7.5 7-6.5 3.5-6.5 6.625 2.375 4.875 4.75 5.875 7.625 4.125 7.5 11.125-3.5 7.875-1.75 13.875c1.4 4.8 6.334 6.667 8.625 7 4.375 1.708 11.05 6.625 2.75 12.625-3.541 1.292-10.775 5.675-11.375 12.875-.6 7.2.917 16.583 1.75 20.375"></path><path stroke="#646cff75" stroke-linecap="round" stroke-linejoin="round" d="M98.947 1.625c-3.291 12.542-7.2 40.1 3.5 50 3.9 3.608 6.879 3.607 10.375 6.25 15.375 11.625 2.479 18.044-8.25 24.75-6 3.75-8.625 7.75-7.625 18 .667 2.833 2.45 10.475 4.25 18.375 2.25 9.875-5.625 17-9.125 18.75s-13 5.375-12.625 12.125 2.375 8 7.875 10.625 11.625 4.375 15.75 19.625-.75 21.125-1.75 22.625-2 4.375-7.5 7-6.5 3.5-6.5 6.625 2.375 4.875 4.75 5.875 7.625 4.125 7.5 11.125-3.5 7.875-1.75 13.875c1.4 4.8 6.334 6.667 8.625 7 4.375 1.708 11.05 6.625 2.75 12.625-3.541 1.292-10.775 5.675-11.375 12.875-.6 7.2.917 16.583 1.75 20.375"></path><path stroke="#646cff75" stroke-linecap="round" stroke-linejoin="round" d="M139.162 1.625c-3.291 12.542-7.2 40.1 3.5 50 3.9 3.608 6.879 3.607 10.375 6.25 15.375 11.625 2.479 18.044-8.25 24.75-6 3.75-8.625 7.75-7.625 18 .667 2.833 2.45 10.475 4.25 18.375 2.25 9.875-5.625 17-9.125 18.75s-13 5.375-12.625 12.125 2.375 8 7.875 10.625 11.625 4.375 15.75 19.625-.75 21.125-1.75 22.625-2 4.375-7.5 7-6.5 3.5-6.5 6.625 2.375 4.875 4.75 5.875 7.625 4.125 7.5 11.125-3.5 7.875-1.75 13.875c1.4 4.8 6.334 6.667 8.625 7 4.375 1.708 11.05 6.625 2.75 12.625-3.541 1.292-10.775 5.675-11.375 12.875-.6 7.2.917 16.583 1.75 20.375"></path><path stroke="#646cff75" stroke-linecap="round" stroke-linejoin="round" d="M78.715 1.625c-3.292 12.542-7.2 40.1 3.5 50 3.9 3.608 6.879 3.607 10.375 6.25 15.375 11.625 2.479 18.044-8.25 24.75-6 3.75-8.625 7.75-7.625 18 .666 2.833 2.45 10.475 4.25 18.375 2.25 9.875-5.625 17-9.125 18.75s-13 5.375-12.625 12.125 2.375 8 7.875 10.625 11.625 4.375 15.75 19.625-.75 21.125-1.75 22.625-2 4.375-7.5 7-6.5 3.5-6.5 6.625 2.375 4.875 4.75 5.875 7.625 4.125 7.5 11.125-3.5 7.875-1.75 13.875c1.4 4.8 6.333 6.667 8.625 7 4.375 1.708 11.05 6.625 2.75 12.625-3.542 1.292-10.775 5.675-11.375 12.875-.6 7.2.916 16.583 1.75 20.375"></path><path stroke="#646cff75" stroke-linecap="round" stroke-linejoin="round" d="M240.324 1c-3.291 12.542-7.2 40.1 3.5 50 3.9 3.608 6.879 3.607 10.375 6.25 15.375 11.625 2.479 18.044-8.25 24.75-6 3.75-8.625 7.75-7.625 18 .667 2.833 2.45 10.475 4.25 18.375 2.25 9.875-5.625 17-9.125 18.75s-13 5.375-12.625 12.125 2.375 8 7.875 10.625 11.625 4.375 15.75 19.625-.75 21.125-1.75 22.625-2 4.375-7.5 7-6.5 3.5-6.5 6.625 2.375 4.875 4.75 5.875 7.625 4.125 7.5 11.125-3.5 7.875-1.75 13.875c1.4 4.8 6.334 6.667 8.625 7 4.375 1.708 11.05 6.625 2.75 12.625-3.541 1.292-10.775 5.675-11.375 12.875-.6 7.2.917 16.583 1.75 20.375"></path><path stroke="#646cff75" stroke-linecap="round" stroke-linejoin="round" d="M270.307 1c-3.292 12.542-7.2 40.1 3.5 50 3.899 3.608 6.879 3.607 10.375 6.25 15.375 11.625 2.479 18.044-8.25 24.75-6 3.75-8.625 7.75-7.625 18 .666 2.833 2.45 10.475 4.25 18.375 2.25 9.875-5.625 17-9.125 18.75s-13 5.375-12.625 12.125 2.375 8 7.875 10.625 11.625 4.375 15.75 19.625-.75 21.125-1.75 22.625-2 4.375-7.5 7-6.5 3.5-6.5 6.625 2.375 4.875 4.75 5.875 7.625 4.125 7.5 11.125-3.5 7.875-1.75 13.875c1.4 4.8 6.333 6.667 8.625 7 4.375 1.708 11.05 6.625 2.75 12.625-3.542 1.292-10.775 5.675-11.375 12.875-.6 7.2.916 16.583 1.75 20.375"></path><path stroke="#646cff75" stroke-linecap="round" stroke-linejoin="round" d="M119.18 1.625c-3.292 12.542-7.2 40.1 3.5 50 3.899 3.608 6.879 3.607 10.375 6.25 15.375 11.625 2.479 18.044-8.25 24.75-6 3.75-8.625 7.75-7.625 18 .666 2.833 2.45 10.475 4.25 18.375 2.25 9.875-5.625 17-9.125 18.75s-13 5.375-12.625 12.125 2.375 8 7.875 10.625 11.625 4.375 15.75 19.625-.75 21.125-1.75 22.625-2 4.375-7.5 7-6.5 3.5-6.5 6.625 2.375 4.875 4.75 5.875 7.625 4.125 7.5 11.125-3.5 7.875-1.75 13.875c1.4 4.8 6.333 6.667 8.625 7 4.375 1.708 11.05 6.625 2.75 12.625-3.542 1.292-10.775 5.675-11.375 12.875-.6 7.2.916 16.583 1.75 20.375"></path><path stroke="#646cff75" stroke-linecap="round" stroke-linejoin="round" d="M159.395 1.625c-3.292 12.542-7.2 40.1 3.5 50 3.899 3.608 6.879 3.607 10.375 6.25 15.375 11.625 2.479 18.044-8.25 24.75-6 3.75-8.625 7.75-7.625 18 .666 2.833 2.45 10.475 4.25 18.375 2.25 9.875-5.625 17-9.125 18.75s-13 5.375-12.625 12.125 2.375 8 7.875 10.625 11.625 4.375 15.75 19.625-.75 21.125-1.75 22.625-2 4.375-7.5 7-6.5 3.5-6.5 6.625 2.375 4.875 4.75 5.875 7.625 4.125 7.5 11.125-3.5 7.875-1.75 13.875c1.4 4.8 6.333 6.667 8.625 7 4.375 1.708 11.05 6.625 2.75 12.625-3.542 1.292-10.775 5.675-11.375 12.875-.6 7.2.916 16.583 1.75 20.375"></path></svg>