<svg xmlns="http://www.w3.org/2000/svg" fill="none" viewBox="-0.5 -0.5 200 200"><g id="portfolio--work-office-portfolio"><g id="folder - back"><path id="vector" fill="#81f8f8" d="M163.77 187.587H26.987l3.728 -8.99 -3.728 -92.769a2.871 2.871 0 0 1 2.871 -2.871h131.041a2.871 2.871 0 0 1 2.871 2.871l3.728 94.197 -3.726 7.562h-0.001Z" stroke-width="1"></path><path id="vector_2" fill="#81f8f8" d="m113.115 82.963 0.547 -14.229a1.064 1.064 0 0 0 -1.065 -1.103H80.581c-0.562 0 -1.03 0.44 -1.063 1.003l-0.833 14.328h-6.893l0.876 -19.701a2.951 2.951 0 0 1 2.95 -2.82h42.535a2.955 2.955 0 0 1 2.948 3.085l-0.863 19.437h-7.123l-0.001 0Z" stroke-width="1"></path><path id="vector_3" fill="#000000" d="M164.219 85.829a3.325 3.325 0 0 0 -3.32 -3.32h-40.189l0.842 -18.968a3.403 3.403 0 0 0 -3.398 -3.552H75.618a3.397 3.397 0 0 0 -3.401 3.25l-0.856 19.27H29.857a3.327 3.327 0 0 0 -3.32 3.338l3.723 92.671 -3.69 8.896a0.452 0.452 0 0 0 0.418 0.623h136.783a0.452 0.452 0 0 0 0.404 -0.25c4.056 -8.246 3.779 -7.606 3.773 -7.778l-3.728 -94.179v-0.002ZM73.118 63.278a2.497 2.497 0 0 1 2.5 -2.39h42.535a2.506 2.506 0 0 1 2.5 2.613l-0.845 19.007h-6.226l0.525 -13.757a1.517 1.517 0 0 0 -1.512 -1.572H80.58c-0.8 0 -1.463 0.624 -1.51 1.424l-0.807 13.904h-5.999l0.855 -19.229h-0.001Zm6.046 19.229 0.805 -13.85a0.614 0.614 0 0 1 0.613 -0.577h32.016c0.354 0 0.628 0.295 0.613 0.637l-0.526 13.792H79.163Zm84.325 104.627H27.662l3.468 -8.369 -3.692 -92.941a2.422 2.422 0 0 1 2.42 -2.42h131.041a2.426 2.426 0 0 1 2.42 2.438l3.723 94.084 -3.553 7.209v-0.001Z" stroke-width="1"></path><path id="vector_4" fill="#000000" d="m71.665 82.764 0.096 -0.507 7.145 -1.303 -0.18 1.99 -7.061 -0.179Z" stroke-width="1"></path><path id="vector_5" fill="#000000" d="m112.708 82.764 0.374 -0.422 6.864 -1.389 -0.18 1.99s-5.342 -0.026 -7.059 -0.179h0.001Z" stroke-width="1"></path></g><g id="paper 2"><path id="vector_6" fill="#ffffff" d="M165.652 180.672H28.869L18.649 89.366H155.429l10.222 91.306Z" stroke-width="1"></path><path id="vector_7" fill="#000000" d="M165.652 181.123H28.869a0.451 0.451 0 0 1 -0.448 -0.4c-10.155 -91.603 -10.324 -91.415 -10.109 -91.656l137.118 -0.15c0.23 0 0.423 0.172 0.448 0.4l10.222 91.306a0.451 0.451 0 0 1 -0.448 0.499v0.001Zm-136.379 -0.9h135.873l-10.119 -90.406H19.154l10.118 90.406Z" stroke-width="1"></path></g><g id="paper 1"><path id="vector_8" fill="#ffffff" d="M134.563 181.728H19.058l-13.633 -77.103h115.504l13.634 77.103Z" stroke-width="1"></path><path id="vector_9" fill="#000000" d="M134.563 182.178H19.058a0.451 0.451 0 0 1 -0.443 -0.372C5.015 104.366 4.866 104.591 5.079 104.333c0.213 -0.257 0.001 -0.16 115.849 -0.16 0.218 0 0.405 0.157 0.443 0.372l13.634 77.105a0.448 0.448 0 0 1 -0.443 0.527v0.001Zm-115.126 -0.9h114.591l-13.474 -76.204H5.962l13.474 76.204Z" stroke-width="1"></path></g><g id="ruler"><path id="vector_10" fill="#ffffff" d="m36.139 18.155 -17.736 6.079 43.508 126.934 17.737 -6.079L36.138 18.155Z" stroke-width="1"></path><path id="vector_11" fill="#000000" d="M80.074 144.948 36.568 18.012a0.452 0.452 0 0 0 -0.573 -0.28L18.258 23.811a0.452 0.452 0 0 0 -0.28 0.572c43.612 127.333 43.477 126.773 43.932 127.241 0.114 0 0.031 0.086 17.882 -6.103a0.452 0.452 0 0 0 0.281 -0.572v-0.001Zm-17.885 5.654L18.974 24.519l16.887 -5.788 1.37 3.997 -7.178 2.461c-0.477 0.167 -0.364 0.878 0.147 0.878 0.112 0 -0.42 0.169 7.323 -2.486l1.534 4.478 -4.339 1.487c-0.444 0.156 -0.392 0.878 0.147 0.878 0.109 0 -0.221 0.1 4.484 -1.511l1.534 4.477 -7.179 2.462c-0.477 0.167 -0.364 0.878 0.147 0.878 0.112 0 -0.42 0.168 7.323 -2.487l1.534 4.476 -4.339 1.487c-0.444 0.156 -0.392 0.878 0.147 0.878 0.108 0 -0.221 0.1 4.483 -1.511l1.534 4.476 -7.178 2.461c-0.477 0.167 -0.363 0.878 0.147 0.878 0.112 0 -0.42 0.169 7.323 -2.486l1.534 4.478 -4.339 1.487c-0.444 0.156 -0.392 0.878 0.147 0.878 0.108 0 -0.221 0.1 4.484 -1.511l1.534 4.477 -7.179 2.462c-0.477 0.167 -0.364 0.878 0.147 0.878 0.112 0 -0.42 0.168 7.323 -2.487l1.533 4.476 -4.339 1.487c-0.444 0.156 -0.392 0.878 0.147 0.878 0.109 0 -0.221 0.1 4.483 -1.511l1.534 4.476 -7.18 2.462c-0.48 0.168 -0.361 0.878 0.147 0.878 0.112 0 -0.418 0.168 7.325 -2.487l1.535 4.478 -4.339 1.487c-0.478 0.168 -0.361 0.878 0.145 0.878 0.124 0 -0.219 0.1 4.486 -1.511l1.534 4.476 -7.181 2.462c-0.477 0.167 -0.364 0.878 0.147 0.878 0.112 0 -0.418 0.168 7.325 -2.487l1.534 4.476 -4.339 1.487c-0.444 0.156 -0.392 0.878 0.147 0.878 0.108 0 -0.221 0.1 4.483 -1.511l1.534 4.476 -7.181 2.462c-0.479 0.168 -0.362 0.878 0.147 0.878 0.112 0 -0.418 0.168 7.325 -2.487l1.534 4.478 -4.339 1.487c-0.444 0.156 -0.392 0.878 0.147 0.878 0.108 0 -0.221 0.1 4.484 -1.511l1.534 4.476 -7.181 2.462c-0.477 0.167 -0.363 0.878 0.147 0.878 0.112 0 -0.418 0.168 7.325 -2.487l1.535 4.478 -4.339 1.487c-0.444 0.156 -0.392 0.878 0.147 0.878 0.108 0 -0.221 0.1 4.484 -1.511l1.533 4.473 -7.18 2.462c-0.477 0.167 -0.364 0.878 0.147 0.878 0.112 0 -0.418 0.168 7.325 -2.487l1.534 4.478 -4.341 1.488c-0.444 0.156 -0.392 0.878 0.147 0.878 0.109 0 -0.219 0.1 4.486 -1.512l1.534 4.477 -7.181 2.462c-0.48 0.168 -0.361 0.878 0.148 0.878 0.112 0 -0.418 0.168 7.325 -2.487l1.534 4.478 -4.342 1.488c-0.444 0.155 -0.392 0.878 0.147 0.878 0.109 0 -0.218 0.1 4.486 -1.512l1.533 4.474 -7.18 2.462c-0.48 0.168 -0.361 0.878 0.147 0.878 0.112 0 -0.418 0.168 7.325 -2.487l1.534 4.478 -4.341 1.488c-0.444 0.156 -0.392 0.878 0.147 0.878 0.108 0 -0.219 0.1 4.486 -1.512l1.534 4.476 -7.181 2.462c-0.48 0.168 -0.361 0.878 0.147 0.878 0.112 0 -0.418 0.168 7.325 -2.487l1.371 4 -16.887 5.788 0.002 -0.003Z" stroke-width="1"></path></g><g id="folder - front"><path id="vector_12" fill="#81f8f8" d="M163.77 187.587H26.987l-14.935 -86.833a2.873 2.873 0 0 1 2.831 -3.355h130.956a2.874 2.874 0 0 1 2.831 2.385l15.101 87.802 -0.001 0.001Z" stroke-width="1"></path><path id="vector_13" fill="#000000" d="M163.77 188.037H26.987a0.449 0.449 0 0 1 -0.443 -0.374l-14.935 -86.831a3.319 3.319 0 0 1 3.273 -3.882h130.957a3.312 3.312 0 0 1 3.273 2.758l15.102 87.803a0.45 0.45 0 0 1 -0.444 0.526Zm-136.403 -0.901h135.866l-15.012 -87.278a2.414 2.414 0 0 0 -2.385 -2.01H14.883a2.421 2.421 0 0 0 -2.385 2.83l14.869 86.458v0.001Z" stroke-width="1"></path></g><g id="stars"><g id="group"><path id="vector_14" fill="#ffffff" d="M110.697 11.58c2.606 5.368 2.415 5.067 2.626 5.1l5.438 0.863a0.283 0.283 0 0 1 0.152 0.485c-4.312 4.145 -4.078 3.866 -4.043 4.076l0.86 5.438a0.284 0.284 0 0 1 -0.415 0.295c-5.265 -2.795 -4.94 -2.687 -5.125 -2.585l-4.905 2.5a0.285 0.285 0 0 1 -0.41 -0.302c1.03 -5.881 1.027 -5.527 0.876 -5.673l-3.893 -3.893a0.285 0.285 0 0 1 0.162 -0.483c5.931 -0.832 5.572 -0.732 5.669 -0.92l2.5 -4.905a0.285 0.285 0 0 1 0.51 0.005l-0.001 0.002Z" stroke-width="1"></path><path id="vector_15" fill="#000000" d="M115.445 28.317c-0.255 0 0.149 0.179 -5.128 -2.628l-4.831 2.461a0.736 0.736 0 0 1 -1.058 -0.783l0.94 -5.338 -3.833 -3.833a0.736 0.736 0 0 1 0.418 -1.248l5.368 -0.755 2.461 -4.831a0.736 0.736 0 0 1 1.315 0.012l2.375 4.871 5.353 0.848a0.736 0.736 0 0 1 0.395 1.255l-3.898 3.765 0.848 5.353a0.736 0.736 0 0 1 -0.725 0.85v0.002Zm-5.125 -3.545c0.271 0 -0.038 -0.119 4.913 2.512l-0.81 -5.11a0.731 0.731 0 0 1 0.215 -0.643l3.723 -3.596 -5.11 -0.81a0.732 0.732 0 0 1 -0.545 -0.403l-2.268 -4.651 -2.35 4.611a0.739 0.739 0 0 1 -0.552 0.395l-5.125 0.72 3.661 3.661a0.741 0.741 0 0 1 0.205 0.648l-0.897 5.095c4.987 -2.542 4.693 -2.43 4.943 -2.43h-0.002Z" stroke-width="1"></path></g><g id="group_2"><path id="vector_16" fill="#ffd997" d="M51.667 144.185c3.889 4.919 3.617 4.673 3.838 4.656l5.781 -0.332a0.299 0.299 0 0 1 0.268 0.465c-3.47 5.239 -3.321 4.885 -3.241 5.093l2.102 5.393a0.3 0.3 0 0 1 -0.36 0.398c-6.053 -1.709 -5.672 -1.65 -5.844 -1.507l-4.48 3.668a0.298 0.298 0 0 1 -0.488 -0.22c-0.221 -6.255 -0.183 -5.906 -0.37 -6.026l-4.873 -3.128a0.298 0.298 0 0 1 0.058 -0.532c5.897 -2.169 5.559 -2 5.616 -2.215l1.468 -5.601a0.3 0.3 0 0 1 0.525 -0.11Z" stroke-width="1"></path><path id="vector_17" fill="#000000" d="M49.54 162.53a0.749 0.749 0 0 1 -0.747 -0.717l-0.23 -5.705 -4.806 -3.085a0.75 0.75 0 0 1 0.145 -1.335l5.356 -1.983 1.448 -5.523c0.155 -0.595 0.933 -0.76 1.312 -0.273l3.54 4.48 5.7 -0.33a0.747 0.747 0 0 1 0.665 1.162l-3.168 4.753 2.076 5.32a0.749 0.749 0 0 1 -0.9 0.993l-5.498 -1.545c-4.814 3.939 -4.527 3.788 -4.893 3.788l0.001 0.001Zm-5.043 -10.101 4.618 2.963a0.752 0.752 0 0 1 0.345 0.6l0.22 5.483 4.246 -3.476a0.751 0.751 0 0 1 0.678 -0.142l5.283 1.486 -1.993 -5.113a0.756 0.756 0 0 1 0.075 -0.688l3.043 -4.565 -5.478 0.315a0.745 0.745 0 0 1 -0.63 -0.283l-3.403 -4.305 -1.393 5.308a0.752 0.752 0 0 1 -0.465 0.512l-5.146 1.905 0.001 -0.002Z" stroke-width="1"></path></g><path id="vector_18" fill="#000000" d="M160.748 55.565h-2.288v-4.656a0.451 0.451 0 0 0 -0.899 0v4.656h-2.288a0.451 0.451 0 0 0 0 0.899h2.288v4.653a0.451 0.451 0 0 0 0.899 0v-4.653h2.288a0.451 0.451 0 0 0 0.45 -0.45 0.452 0.452 0 0 0 -0.45 -0.45Z" stroke-width="1"></path></g><g id="pencil"><path id="vector_19" fill="#ffd997" d="m179.733 107.596 -60.915 24.488 3.392 8.438 60.915 -24.488 -3.392 -8.438Z" stroke-width="1"></path><path id="vector_20" fill="#ffffff" d="m115.87 132.534 2.087 -0.839a0.632 0.632 0 0 1 0.822 0.35l3.43 8.533a0.633 0.633 0 0 1 -0.35 0.823l-2.086 0.839a0.634 0.634 0 0 1 -0.824 -0.351l-3.43 -8.533a0.631 0.631 0 0 1 0.35 -0.822l0.001 0Z" stroke-width="1"></path><path id="vector_21" fill="#ffffff" d="m112.61 133.84 2.086 -0.839a0.632 0.632 0 0 1 0.823 0.351l3.431 8.533a0.633 0.633 0 0 1 -0.35 0.822l-2.086 0.839a0.633 0.633 0 0 1 -0.822 -0.351l-3.431 -8.533a0.633 0.633 0 0 1 0.351 -0.823l-0.002 0.001Z" stroke-width="1"></path><path id="vector_22" fill="#ffffff" d="m187.339 108.076 0.988 2.458 -5.206 5.521 -3.393 -8.439 7.611 0.46Z" stroke-width="1"></path><path id="vector_23" fill="#000000" d="m193.992 107.689 -0.567 -1.413a0.448 0.448 0 0 0 -0.542 -0.265l-5.592 1.613 -7.536 -0.455 -60.77 24.375a1.085 1.085 0 0 0 -1.188 -0.263c-2.073 0.832 -2.299 0.82 -2.585 1.286 -0.485 -0.126 -0.499 -0.046 -2.755 0.862 -0.422 0.169 -0.675 0.578 -0.674 1.008l-5.174 2.08a2.881 2.881 0 0 0 -1.595 3.74l1.583 3.938a2.875 2.875 0 0 0 3.74 1.595l5.178 -2.081c0.205 0.213 0.484 0.34 0.778 0.34 0.288 0 0.299 -0.038 2.486 -0.917 0.218 -0.088 0.375 -0.249 0.492 -0.434 0.484 0.129 0.577 0.005 2.766 -0.876 0.421 -0.169 0.674 -0.577 0.674 -1.007l60.557 -24.338c0.169 -0.058 -0.256 0.354 5.337 -5.578l5.175 -2.644a0.448 0.448 0 0 0 0.213 -0.567Zm-14.512 0.512 0.741 1.844 -60.082 24.148 -0.74 -1.844 60.082 -24.148h-0.001Zm1.077 2.679 0.902 2.246 -60.082 24.148 -0.902 -2.246 60.083 -24.148h-0.001Zm-62.117 31.418 -2.083 0.838a0.182 0.182 0 0 1 -0.238 -0.102l-3.428 -8.531a0.182 0.182 0 0 1 0.102 -0.238l2.083 -0.838c0.109 -0.037 0.205 0.017 0.238 0.102l3.428 8.531a0.182 0.182 0 0 1 -0.102 0.238Zm3.261 -1.31 -2.083 0.838a0.185 0.185 0 0 1 -0.238 -0.102l-3.428 -8.531a0.18 0.18 0 0 1 0.1 -0.238c1.765 -0.723 2.051 -0.85 2.15 -0.85 0.196 0 -0.063 -0.444 3.601 8.646a0.182 0.182 0 0 1 -0.102 0.238h-0.001Zm0.752 -1.035 -0.741 -1.845 60.083 -24.148 0.741 1.844 -60.082 24.148 -0.001 0.001Zm60.822 -24.718 -2.862 -7.123 6.613 0.4 0.775 1.925 -4.525 4.798h-0.001Z" stroke-width="1"></path><path id="vector_24" fill="#ffffff" d="M109.042 144.443c-0.263 0 -0.411 -0.344 -0.19 -0.53l0.302 -0.258c0.418 -0.355 0.565 -0.935 0.365 -1.443l-1.663 -4.28c-0.143 -0.369 0.413 -0.586 0.557 -0.218l1.663 4.28a1.885 1.885 0 0 1 -0.537 2.117c-0.324 0.275 -0.358 0.33 -0.497 0.33v0.001Z" stroke-width="1"></path></g></g></svg>