<svg xmlns="http://www.w3.org/2000/svg" fill="none" viewBox="0 0 200 200" height="400" width="400"><g id="portfolio--work-office-portfolio"><g id="folder - back"><path id="vector" fill="#646cff6e" d="M164.593 188.53H27.123l3.747-9.035-3.747-93.235a2.885 2.885 0 0 1 2.885-2.885h131.699a2.885 2.885 0 0 1 2.885 2.885l3.747 94.67-3.745 7.6h-.001Z"></path><path id="vector_2" fill="#646cff6e" d="m113.683 83.38.55-14.3a1.069 1.069 0 0 0-1.07-1.109H80.986c-.565 0-1.035.442-1.068 1.008l-.837 14.4h-6.928l.88-19.8a2.966 2.966 0 0 1 2.965-2.834h42.749a2.97 2.97 0 0 1 2.963 3.101l-.867 19.535h-7.16Z"></path><path id="vector_3" fill="#000000" d="M165.044 86.26a3.342 3.342 0 0 0-3.337-3.337h-40.391l.846-19.063a3.42 3.42 0 0 0-3.415-3.57H75.998a3.414 3.414 0 0 0-3.418 3.266l-.86 19.367H30.007a3.344 3.344 0 0 0-3.337 3.355l3.742 93.137-3.709 8.941a.454.454 0 0 0 .42.626h137.47a.454.454 0 0 0 .406-.251c4.076-8.287 3.798-7.644 3.792-7.817l-3.747-94.652v-.002ZM73.485 63.596a2.51 2.51 0 0 1 2.513-2.402h42.749a2.519 2.519 0 0 1 2.513 2.626l-.849 19.103h-6.257l.528-13.826a1.525 1.525 0 0 0-1.52-1.58H80.985c-.804 0-1.47.627-1.518 1.431l-.811 13.974h-6.029l.859-19.326h-.001Zm6.076 19.326.809-13.92a.617.617 0 0 1 .616-.58h32.177c.356 0 .631.296.616.64l-.529 13.861H79.561Zm84.749 105.153H27.801l3.485-8.411-3.711-93.408a2.434 2.434 0 0 1 2.432-2.432h131.7a2.438 2.438 0 0 1 2.432 2.45l3.742 94.557-3.571 7.245v-.001Z"></path><path id="vector_4" fill="#000000" d="m72.025 83.18.096-.51 7.181-1.31-.181 2-7.096-.18Z"></path><path id="vector_5" fill="#000000" d="m113.274 83.18.376-.424 6.898-1.396-.181 2s-5.369-.026-7.094-.18h.001Z"></path></g><g id="paper 2"><path id="vector_6" fill="#ffffff" d="M166.484 181.58H29.014L18.743 89.815H156.21l10.273 91.765Z"></path><path id="vector_7" fill="#000000" d="M166.484 182.033H29.014a.453.453 0 0 1-.45-.402c-10.206-92.063-10.376-91.874-10.16-92.117l137.807-.151c.231 0 .425.173.45.402l10.273 91.765a.453.453 0 0 1-.45.502v.001Zm-137.064-.905h136.556l-10.17-90.86H19.25l10.169 90.86Z"></path></g><g id="paper 1"><path id="vector_8" fill="#ffffff" d="M135.239 182.641H19.154l-13.702-77.49h116.084l13.703 77.49Z"></path><path id="vector_9" fill="#000000" d="M135.239 183.093H19.154a.453.453 0 0 1-.445-.374C5.04 104.89 4.89 105.117 5.105 104.857c.214-.258.001-.161 116.431-.161.219 0 .407.158.445.374l13.703 77.492a.45.45 0 0 1-.445.53v.001Zm-115.705-.905h115.167l-13.542-76.587H5.992l13.542 76.587Z"></path></g><g id="ruler"><path id="vector_10" fill="#ffffff" d="m36.321 18.246-17.825 6.11 43.727 127.572 17.826-6.11L36.32 18.246Z"></path><path id="vector_11" fill="#000000" d="M80.476 145.676 36.752 18.103a.454.454 0 0 0-.576-.281L18.35 23.931a.454.454 0 0 0-.281.575c43.831 127.973 43.695 127.41 44.153 127.88.115 0 .031.086 17.972-6.134a.454.454 0 0 0 .282-.575v-.001Zm-17.975 5.682L19.069 24.642l16.972-5.817 1.377 4.017-7.214 2.473c-.479.168-.366.882.148.882.113 0-.422.17 7.36-2.498l1.542 4.5-4.361 1.494c-.446.157-.394.882.148.882.11 0-.222.101 4.507-1.519l1.542 4.499-7.215 2.474c-.479.168-.366.882.148.882.113 0-.422.169 7.36-2.499l1.542 4.498-4.361 1.494c-.446.157-.394.882.148.882.109 0-.222.101 4.506-1.519l1.542 4.498-7.214 2.473c-.479.168-.365.882.148.882.113 0-.422.17 7.36-2.498l1.542 4.5-4.361 1.494c-.446.157-.394.882.148.882.109 0-.222.101 4.507-1.519l1.542 4.499-7.215 2.474c-.479.168-.366.882.148.882.113 0-.422.169 7.36-2.499l1.541 4.498-4.361 1.494c-.446.157-.394.882.148.882.11 0-.222.101 4.506-1.519l1.542 4.498-7.216 2.474c-.482.169-.363.882.148.882.113 0-.42.169 7.362-2.499l1.543 4.501-4.361 1.494c-.48.169-.363.882.146.882.125 0-.22.101 4.509-1.519l1.542 4.498-7.217 2.474c-.479.168-.366.882.148.882.113 0-.42.169 7.362-2.499l1.542 4.498-4.361 1.494c-.446.157-.394.882.148.882.109 0-.222.101 4.506-1.519l1.542 4.498-7.217 2.474c-.481.169-.364.882.148.882.113 0-.42.169 7.362-2.499l1.542 4.5-4.361 1.494c-.446.157-.394.882.148.882.109 0-.222.101 4.507-1.519l1.542 4.498-7.217 2.474c-.479.168-.365.882.148.882.113 0-.42.169 7.362-2.499l1.543 4.5-4.361 1.494c-.446.157-.394.882.148.882.109 0-.222.101 4.507-1.519l1.541 4.495-7.216 2.474c-.479.168-.366.882.148.882.113 0-.42.169 7.362-2.499l1.542 4.5-4.363 1.495c-.446.157-.394.882.148.882.11 0-.22.1 4.509-1.52l1.542 4.499-7.217 2.474c-.482.169-.363.882.149.882.113 0-.42.169 7.362-2.499l1.542 4.5-4.364 1.495c-.446.156-.394.882.148.882.11 0-.219.1 4.509-1.52l1.541 4.496-7.216 2.474c-.482.169-.363.882.148.882.113 0-.42.169 7.362-2.499l1.542 4.5-4.363 1.495c-.446.157-.394.882.148.882.109 0-.22.1 4.509-1.52l1.542 4.498-7.217 2.474c-.482.169-.363.882.148.882.113 0-.42.169 7.362-2.499l1.378 4.02-16.972 5.817.002-.003Z"></path></g><g id="folder - front"><path id="vector_12" fill="#646cff6e" d="M164.593 188.53H27.123l-15.01-87.269a2.887 2.887 0 0 1 2.845-3.372h131.614a2.888 2.888 0 0 1 2.845 2.397l15.177 88.243-.001.001Z"></path><path id="vector_13" fill="#000000" d="M164.593 188.982H27.123a.451.451 0 0 1-.445-.376l-15.01-87.267a3.336 3.336 0 0 1 3.289-3.902h131.615a3.329 3.329 0 0 1 3.289 2.772l15.178 88.244a.452.452 0 0 1-.446.529Zm-137.088-.906h136.549l-15.087-87.717a2.426 2.426 0 0 0-2.397-2.02H14.958a2.433 2.433 0 0 0-2.397 2.844l14.944 86.892v.001Z"></path></g><g id="stars"><g id="group"><path id="vector_14" fill="#ffffff" d="M111.253 11.638c2.619 5.395 2.427 5.092 2.639 5.126l5.465.867a.284.284 0 0 1 .153.487c-4.334 4.166-4.098 3.885-4.063 4.096l.864 5.465a.285.285 0 0 1-.417.296c-5.291-2.809-4.965-2.7-5.151-2.598l-4.93 2.513a.286.286 0 0 1-.412-.304c1.035-5.911 1.032-5.555.88-5.702l-3.913-3.913a.286.286 0 0 1 .163-.485c5.961-.836 5.6-.736 5.697-.925l2.513-4.93a.286.286 0 0 1 .513.005l-.001.002Z"></path><path id="vector_15" fill="#000000" d="M116.025 28.459c-.256 0 .15.18-5.154-2.641l-4.855 2.473a.74.74 0 0 1-1.063-.787l.945-5.365-3.852-3.852a.74.74 0 0 1 .42-1.254l5.395-.759 2.473-4.855a.74.74 0 0 1 1.322.012l2.387 4.895 5.38.852a.74.74 0 0 1 .397 1.261l-3.918 3.784.852 5.38a.74.74 0 0 1-.729.854v.002Zm-5.151-3.563c.272 0-.038-.12 4.938 2.525l-.814-5.136a.735.735 0 0 1 .216-.646l3.742-3.614-5.136-.814a.736.736 0 0 1-.548-.405l-2.279-4.674-2.362 4.634a.743.743 0 0 1-.555.397l-5.151.724 3.679 3.679a.745.745 0 0 1 .206.651l-.902 5.121c5.012-2.555 4.717-2.442 4.968-2.442h-.002Z"></path></g><g id="group_2"><path id="vector_16" fill="#ffd997" d="M51.927 144.91c3.909 4.944 3.635 4.696 3.857 4.679l5.81-.334a.301.301 0 0 1 .269.467c-3.487 5.265-3.338 4.91-3.257 5.119l2.113 5.42a.302.302 0 0 1-.362.4c-6.083-1.718-5.701-1.658-5.873-1.515l-4.503 3.686a.3.3 0 0 1-.49-.221c-.222-6.286-.184-5.936-.372-6.056l-4.897-3.144a.3.3 0 0 1 .058-.535c5.927-2.18 5.587-2.01 5.644-2.226l1.475-5.629a.302.302 0 0 1 .528-.111Z"></path><path id="vector_17" fill="#000000" d="M49.789 163.347a.753.753 0 0 1-.751-.721l-.231-5.734-4.83-3.101a.754.754 0 0 1 .146-1.342l5.383-1.993 1.455-5.551c.156-.598.938-.764 1.319-.274l3.558 4.503 5.729-.332a.751.751 0 0 1 .668 1.168l-3.184 4.777 2.086 5.347a.753.753 0 0 1-.905.998l-5.526-1.553c-4.838 3.959-4.55 3.807-4.918 3.807l.001.001Zm-5.068-10.152 4.641 2.978a.756.756 0 0 1 .347.603l.221 5.511 4.267-3.493a.755.755 0 0 1 .681-.143l5.31 1.493-2.003-5.139a.76.76 0 0 1 .075-.691l3.058-4.588-5.506.317a.749.749 0 0 1-.633-.284l-3.42-4.327-1.4 5.335a.756.756 0 0 1-.467.515l-5.172 1.915.001-.002Z"></path></g><path id="vector_18" fill="#000000" d="M161.556 55.844h-2.299v-4.679a.453.453 0 0 0-.904 0v4.679h-2.299a.453.453 0 0 0 0 .904h2.299v4.676a.453.453 0 0 0 .904 0v-4.676h2.299a.453.453 0 0 0 .452-.452.454.454 0 0 0-.452-.452Z"></path></g><g id="pencil"><path id="vector_19" fill="#ffd997" d="m180.636 108.137-61.221 24.611 3.409 8.48 61.221-24.611-3.409-8.48Z"></path><path id="vector_20" fill="#ffffff" d="m116.452 133.2 2.097-.843a.635.635 0 0 1 .826.352l3.447 8.576a.636.636 0 0 1-.352.827l-2.096.843a.637.637 0 0 1-.828-.353l-3.447-8.576a.634.634 0 0 1 .352-.826h.001Z"></path><path id="vector_21" fill="#ffffff" d="m113.176 134.513 2.096-.843a.635.635 0 0 1 .827.353l3.448 8.576a.636.636 0 0 1-.352.826l-2.096.843a.636.636 0 0 1-.826-.353l-3.448-8.576a.636.636 0 0 1 .353-.827l-.002.001Z"></path><path id="vector_22" fill="#ffffff" d="m188.28 108.619.993 2.47-5.232 5.549-3.41-8.481 7.649.462Z"></path><path id="vector_23" fill="#000000" d="m194.967 108.23-.57-1.42a.45.45 0 0 0-.545-.266l-5.62 1.621-7.574-.457-61.075 24.497a1.09 1.09 0 0 0-1.194-.264c-2.083.836-2.311.824-2.598 1.292-.487-.127-.502-.046-2.769.866-.424.17-.678.581-.677 1.013l-5.2 2.09a2.895 2.895 0 0 0-1.603 3.759l1.591 3.958a2.889 2.889 0 0 0 3.759 1.603l5.204-2.091c.206.214.486.342.782.342.289 0 .301-.038 2.498-.922.219-.088.377-.25.494-.436.486.13.58.005 2.78-.88.423-.17.677-.58.677-1.012l60.861-24.46c.17-.058-.257.356 5.364-5.606l5.201-2.657a.45.45 0 0 0 .214-.57Zm-14.585.515.745 1.853-60.384 24.269-.744-1.853 60.384-24.269h-.001Zm1.082 2.692.907 2.257-60.384 24.269-.907-2.257 60.385-24.269h-.001Zm-62.429 31.576-2.093.842a.183.183 0 0 1-.239-.103l-3.445-8.574a.183.183 0 0 1 .103-.239l2.093-.842c.11-.037.206.017.239.103l3.445 8.574a.183.183 0 0 1-.103.239Zm3.277-1.317-2.093.842a.186.186 0 0 1-.239-.103l-3.445-8.574a.181.181 0 0 1 .101-.239c1.774-.727 2.061-.854 2.161-.854.197 0-.063-.446 3.619 8.689a.183.183 0 0 1-.103.239h-.001Zm.756-1.04-.745-1.854 60.385-24.269.745 1.853-60.384 24.269-.001.001Zm61.128-24.842-2.876-7.159 6.646.402.779 1.935-4.548 4.822h-.001Z"></path><path id="vector_24" fill="#ffffff" d="M109.59 145.169c-.264 0-.413-.346-.191-.533l.304-.259c.42-.357.568-.94.367-1.45l-1.671-4.302c-.144-.371.415-.589.56-.219l1.671 4.302a1.894 1.894 0 0 1-.54 2.128c-.326.276-.36.332-.5.332v.001Z"></path></g></g></svg>